<svg width="148" height="114" viewBox="0 0 148 114" fill="none" xmlns="http://www.w3.org/2000/svg">
<g clip-path="url(#clip0_1007_612)">
<path d="M137.297 60.0753C130.403 46.8795 114.071 41.7388 100.865 48.6293C90.114 54.2418 85.9228 67.5579 91.5353 78.3093C93.7259 82.5058 97.6958 85.6547 102.451 86.9552C102.499 86.9684 102.548 86.9816 102.596 86.9948C109.827 88.9102 116.538 87.0757 120.53 82.0714C124.187 77.494 124.806 71.1735 122.092 65.9733C120.609 63.1314 117.939 60.9913 114.759 60.1111C114.739 60.1058 114.71 60.0979 114.691 60.0926C109.743 58.7393 105.143 59.9797 102.372 63.4C99.8187 66.5582 99.3806 70.9274 101.257 74.53C102.318 76.562 104.229 78.028 106.549 78.6831C109.971 79.588 113.174 78.6808 115.112 76.2562C116.906 74.0201 117.202 70.9287 115.877 68.379C115.367 67.3999 114.156 67.0166 113.176 67.5263C112.197 68.0361 111.814 69.2479 112.324 70.2271C112.915 71.3633 112.785 72.7481 111.982 73.7517C111.051 74.9176 109.444 75.2971 107.568 74.8046C106.348 74.4503 105.343 73.6883 104.803 72.6696C103.66 70.4805 103.929 67.8276 105.481 65.9088C107.263 63.7113 110.272 63.0206 113.687 63.9545C115.835 64.5524 117.554 65.9244 118.541 67.8117C120.52 71.6081 120.069 76.2124 117.402 79.5573C114.379 83.3335 109.358 84.635 103.618 83.1066C103.579 83.0961 103.541 83.0855 103.502 83.075C99.8173 82.0672 96.7555 79.654 95.0747 76.4367C90.4843 67.6339 93.909 56.7415 102.702 52.1485C113.949 46.2775 127.868 50.6543 133.729 61.8988C138.899 71.8036 137.654 84.3183 130.623 93.0427C123.827 101.479 113.382 104.531 101.971 101.411C88.486 97.7226 81.2706 90.1406 73.638 82.1127C64.8722 72.8833 55.7979 63.3415 36.8151 58.1499L-56.5367 32.619C-57.5977 32.3289 -58.7032 32.9596 -58.9934 34.0206C-59.2836 35.0816 -58.6529 36.1872 -57.5919 36.4773L35.7984 62.0187C53.701 66.9149 62.3791 76.0477 70.7777 84.876C78.8038 93.3225 86.3891 101.296 100.954 105.279C113.773 108.785 126.046 105.154 133.77 95.5621C141.771 85.6412 143.193 71.3813 137.297 60.0753Z" fill="#1F1F1F"/>
</g>
<defs>
<clipPath id="clip0_1007_612">
<rect width="204.83" height="61.83" fill="white" transform="translate(-49.689) rotate(15.2958)"/>
</clipPath>
</defs>
</svg>
