<svg width="199" height="301" viewBox="0 0 199 301" fill="none" xmlns="http://www.w3.org/2000/svg">
<path opacity="0.5" d="M266.848 94.1317C277.678 52.8752 276.107 17.5047 253.473 4.49054C230.893 -8.46963 199.432 7.83859 169 37.809C138.622 7.83859 107.161 -8.46963 84.5271 4.54454C61.8927 17.5587 60.3765 52.9292 71.2063 94.1857C29.8904 105.418 0 124.426 0 150.508C0 176.591 29.8904 195.545 71.1522 206.831C60.3223 248.088 61.8927 283.458 84.4729 296.472C89.8337 299.55 95.6818 301.008 101.909 301.008C121.944 301.008 145.77 286.05 169 263.208C192.23 286.104 216.056 301.008 236.091 301.008C242.318 301.008 248.166 299.55 253.527 296.472C276.161 283.458 277.678 248.088 266.902 206.831C308.164 195.545 338.054 176.537 338.054 150.508C338 124.426 308.11 105.418 266.848 94.1317ZM242.697 23.2288C252.823 29.0609 255.26 53.6852 245.946 89.2717C233.654 86.8416 220.767 85.0056 207.608 83.8176C199.973 73.0715 191.959 62.8113 183.674 53.4152C205.118 32.3009 224.124 21.6088 235.874 21.6088C238.528 21.6088 240.802 22.1488 242.697 23.2288ZM233.6 175.511C235.82 180.911 237.824 186.149 239.611 191.225C234.304 192.251 228.781 193.115 222.987 193.925C224.828 190.901 226.669 187.823 228.456 184.745C230.189 181.667 231.921 178.589 233.6 175.511ZM209.666 173.945C205.009 181.991 200.298 189.443 195.587 196.571C187.086 197.111 178.26 197.381 169 197.381C159.795 197.381 150.914 197.111 142.413 196.571C137.702 189.443 132.937 181.991 128.28 173.945C123.623 165.953 119.562 158.177 115.717 150.508C119.508 142.894 123.623 135.118 128.28 127.072C132.937 119.08 137.593 111.574 142.359 104.446C150.86 103.906 159.74 103.636 169 103.636C178.26 103.636 187.086 103.906 195.587 104.446C200.298 111.574 205.063 119.026 209.72 127.072C214.377 135.064 218.438 142.84 222.283 150.508C218.438 158.123 214.323 165.899 209.666 173.945ZM169 231.78C165.48 227.729 161.961 223.355 158.387 218.765C161.906 218.873 165.48 218.927 169 218.927C172.52 218.927 176.094 218.873 179.613 218.765C176.039 223.355 172.52 227.729 169 231.78ZM109.598 184.745C111.385 187.823 113.226 190.847 115.067 193.925C109.273 193.169 103.75 192.251 98.4434 191.225C100.23 186.149 102.234 180.911 104.454 175.511C106.078 178.589 107.811 181.667 109.598 184.745ZM104.4 125.506C102.18 120.106 100.176 114.868 98.3893 109.792C103.696 108.766 109.219 107.902 115.013 107.092C113.172 110.116 111.331 113.194 109.544 116.272C107.811 119.35 106.078 122.428 104.4 125.506ZM169 69.1834C172.52 73.2335 176.039 77.6075 179.613 82.1976C176.094 82.0896 172.52 82.0356 169 82.0356C165.426 82.0356 161.906 82.0896 158.333 82.1976C161.906 77.6075 165.48 73.2875 169 69.1834ZM228.456 116.272C226.669 113.194 224.828 110.17 222.987 107.092C228.781 107.902 234.304 108.766 239.611 109.792C237.824 114.868 235.82 120.106 233.6 125.506C231.921 122.428 230.189 119.35 228.456 116.272ZM95.3569 23.2288C105.483 17.3967 128.063 27.5489 154.326 53.4152C146.095 62.8113 138.027 73.0175 130.446 83.7636C117.287 84.9516 104.4 86.7876 92.108 89.2177C82.7401 53.6852 85.1769 29.0609 95.3569 23.2288ZM21.6597 150.508C21.6597 138.79 41.695 124.372 77.3794 114.598C81.4406 126.424 86.314 138.52 91.8372 150.454C86.314 162.443 81.4406 174.485 77.3794 186.365C41.695 176.645 21.6597 162.173 21.6597 150.508ZM95.3569 277.788C85.231 271.956 82.7943 247.332 92.108 211.745C104.4 214.175 117.287 216.011 130.446 217.199C138.081 227.946 146.095 238.206 154.326 247.602C128.063 273.414 105.483 283.62 95.3569 277.788ZM242.697 277.788C232.571 283.62 209.991 273.414 183.729 247.602C191.959 238.206 199.973 228 207.608 217.199C220.767 216.011 233.654 214.175 245.946 211.745C255.26 247.332 252.823 271.902 242.697 277.788ZM260.675 186.365C256.614 174.539 251.74 162.443 246.217 150.454C251.74 138.466 256.614 126.424 260.675 114.598C296.305 124.318 316.394 138.79 316.394 150.508C316.34 162.173 296.305 176.645 260.675 186.365Z" fill="#08103D"/>
</svg>
