<svg width="139" height="75" viewBox="0 0 139 75" fill="none" xmlns="http://www.w3.org/2000/svg">
<path d="M135.297 28.0753C128.404 14.8795 112.071 9.73884 98.8657 16.6293C88.1143 22.2418 83.923 35.5579 89.5356 46.3093C91.7261 50.5058 95.6961 53.6547 100.451 54.9552C100.5 54.9684 100.548 54.9816 100.596 54.9948C107.827 56.9102 114.539 55.0757 118.53 50.0714C122.187 45.494 122.807 39.1735 120.092 33.9733C118.609 31.1314 115.939 28.9913 112.759 28.1111C112.74 28.1058 112.711 28.0979 112.691 28.0926C107.743 26.7393 103.143 27.9797 100.373 31.4C97.8189 34.5582 97.3808 38.9274 99.2569 42.53C100.318 44.562 102.229 46.028 104.549 46.6831C107.971 47.588 111.174 46.6808 113.112 44.2562C114.906 42.0201 115.202 38.9287 113.877 36.379C113.368 35.3999 112.156 35.0166 111.177 35.5263C110.198 36.0361 109.814 37.2479 110.324 38.2271C110.915 39.3633 110.785 40.7481 109.982 41.7517C109.052 42.9176 107.445 43.2971 105.568 42.8046C104.348 42.4503 103.344 41.6883 102.803 40.6696C101.66 38.4805 101.93 35.8276 103.481 33.9088C105.264 31.7113 108.273 31.0206 111.687 31.9545C113.835 32.5524 115.554 33.9244 116.542 35.8117C118.52 39.6081 118.07 44.2124 115.403 47.5573C112.379 51.3335 107.358 52.635 101.618 51.1066C101.579 51.0961 101.541 51.0855 101.502 51.075C97.8176 50.0672 94.7557 47.654 93.0749 44.4367C88.4845 35.6339 91.9093 24.7415 100.702 20.1485C111.95 14.2775 125.868 18.6543 131.729 29.8988C136.9 39.8036 135.654 52.3183 128.623 61.0427C121.827 69.4787 111.382 72.5313 99.9711 69.4105C86.4863 65.7226 79.2708 58.1406 71.6382 50.1127C62.8725 40.8833 53.7982 31.3415 34.8153 26.1499L-58.5364 0.61904C-59.5975 0.328857 -60.703 0.959556 -60.9932 2.02059C-61.2834 3.08162 -60.6527 4.18716 -59.5916 4.47735L33.7987 30.0187C51.7012 34.9149 60.3794 44.0477 68.7779 52.876C76.804 61.3225 84.3893 69.296 98.9544 73.2794C111.774 76.7853 124.046 73.1543 131.77 63.5621C139.771 53.6412 141.193 39.3813 135.297 28.0753Z" fill="#08103D"/>
</svg>
