<svg width="29" height="11" viewBox="0 0 29 11" fill="none" xmlns="http://www.w3.org/2000/svg">
<path d="M6.62001 10.9908C10.3668 10.8268 13.0863 8.90789 15.7182 7.05382C18.1868 5.3104 20.5201 3.66616 23.574 3.53264C25.2663 3.45634 26.5125 3.89124 27.0859 4.7496C27.4721 5.32947 27.5079 6.06576 27.1814 6.67233C27.0063 6.99279 26.5802 7.54214 25.6724 7.58029C25.0871 7.60699 24.669 7.4811 24.4978 7.22168C24.3704 7.03475 24.3744 6.76007 24.5018 6.52355C24.5695 6.39766 24.7327 6.1802 25.0433 6.16494C25.4813 6.14587 25.8237 5.78726 25.8038 5.36762C25.7839 4.94798 25.4096 4.61989 24.9716 4.63897C24.1753 4.6733 23.4705 5.11584 23.0923 5.81778C22.702 6.53881 22.7299 7.39335 23.1639 8.04189C23.4466 8.46917 24.1633 9.17112 25.752 9.10245C26.9744 9.05285 28.0375 8.4005 28.5989 7.36665C29.1882 6.27558 29.1245 4.95561 28.4317 3.92176C27.9141 3.14733 26.5762 1.86932 23.5063 2.00284C19.9706 2.15926 17.3308 4.02095 14.7785 5.8216C12.2262 7.62225 9.8173 9.3199 6.55232 9.46487C3.25548 9.60984 1.69466 7.62225 1.59512 5.58507C1.50354 3.65471 2.76175 1.64042 5.34587 1.52979C7.2969 1.44205 8.37992 2.55982 8.43566 3.70812C8.47548 4.51307 7.98573 5.39814 6.4926 5.46299C6.05461 5.48207 5.71218 5.84067 5.73209 6.26032C5.752 6.67996 6.13026 7.00423 6.56427 6.98897C9.04884 6.87834 10.1 5.17687 10.0244 3.63945C9.93675 1.84262 8.34806 0 5.56088 0C5.46532 0 5.36976 0.00381565 5.2742 0.00763035C1.64688 0.167858 -0.120987 2.97184 0.00642776 5.65756C0.12986 8.35853 2.27599 11.1816 6.62001 10.9908Z" fill="#AB8A62"/>
</svg>
