<svg width="29" height="11" viewBox="0 0 29 11" fill="none" xmlns="http://www.w3.org/2000/svg">
<path d="M22.38 0.00915636C18.6332 0.173199 15.9137 2.09211 13.2818 3.94618C10.8132 5.6896 8.47992 7.33384 5.42596 7.46736C3.73374 7.54366 2.48748 7.10876 1.91411 6.2504C1.52789 5.67053 1.49205 4.93424 1.81855 4.32767C1.99375 4.00721 2.41979 3.45786 3.32761 3.41971C3.91292 3.39301 4.331 3.5189 4.50221 3.77832C4.62962 3.96525 4.62564 4.23993 4.49823 4.47645C4.43054 4.60234 4.26729 4.8198 3.95672 4.83506C3.51873 4.85413 3.17631 5.21274 3.19622 5.63238C3.21612 6.05202 3.5904 6.38011 4.02839 6.36103C4.82473 6.3267 5.52949 5.88416 5.90775 5.18222C6.29795 4.46119 6.27008 3.60665 5.83608 2.95811C5.55338 2.53083 4.83667 1.82888 3.24798 1.89755C2.0256 1.94715 0.962489 2.5995 0.401071 3.63335C-0.188219 4.72442 -0.124512 6.04439 0.568302 7.07824C1.08592 7.85267 2.42377 9.13068 5.49365 8.99716C9.02939 8.84074 11.6692 6.97905 14.2215 5.1784C16.7738 3.37775 19.1827 1.6801 22.4477 1.53513C25.7445 1.39016 27.3053 3.37775 27.4049 5.41493C27.4965 7.34529 26.2382 9.35958 23.6541 9.47021C21.7031 9.55795 20.6201 8.44018 20.5643 7.29188C20.5245 6.48693 21.0143 5.60186 22.5074 5.53701C22.9454 5.51793 23.2878 5.15933 23.2679 4.73968C23.248 4.32004 22.8697 3.99577 22.4357 4.01103C19.9512 4.12166 18.9 5.82313 18.9756 7.36055C19.0632 9.15738 20.6519 11 23.4391 11C23.5347 11 23.6302 10.9962 23.7258 10.9924C27.3531 10.8321 29.121 8.02816 28.9936 5.34244C28.8701 2.64147 26.724 -0.181591 22.38 0.00915636Z" fill="#AB8A62"/>
</svg>
