<svg width="149" height="208" viewBox="0 0 149 208" fill="none" xmlns="http://www.w3.org/2000/svg">
<path opacity="0.7" d="M215.934 78.3763L174.653 56.9006L110.283 112.062L143.934 33.1837L111.215 0.0334513L109.45 1.80637L107.684 0L74.5656 32.7822L106.951 111.292L42.6137 54.7597L1.09949 75.7671L2.2323 78.0084L0 79.1123L20.8237 120.859L105.185 114.203L31.7854 158.191L38.8488 204.32L41.3143 203.952L41.6808 206.428L87.6596 199.47L107.417 116.845L126.375 200.507L172.254 208.033L172.654 205.558L175.119 205.959L182.716 159.897L110.582 115.507L195.71 123.234L217 81.7215L214.768 80.5841L215.934 78.3763ZM108.084 113.968L108.55 115.842L107.75 115.34L108.084 113.968L106.451 115.005L106.684 114.102L108.084 113.968L106.618 112.731L107.55 112.664L108.084 113.968L108.783 112.196L109.116 113.065L108.084 113.968L109.983 114.102L109.25 114.704L108.084 113.968Z" fill="#EBEBEB"/>
</svg>
