<svg width="211" height="301" viewBox="0 0 211 301" fill="none" xmlns="http://www.w3.org/2000/svg">
<path opacity="0.7" d="M138.848 94.1231C149.678 52.8665 148.107 17.496 125.473 4.48188C102.893 -8.4783 71.4319 7.82992 41 37.8003C10.6222 7.82992 -20.8385 -8.4783 -43.4729 4.53588C-66.1073 17.5501 -67.6235 52.9205 -56.7937 94.1771C-98.1096 105.409 -128 124.417 -128 150.5C-128 176.582 -98.1096 195.536 -56.8478 206.823C-67.6777 248.079 -66.1073 283.45 -43.5271 296.464C-38.1663 299.542 -32.3182 301 -26.091 301C-6.05576 301 17.7699 286.042 41 263.199C64.23 286.096 88.0557 301 108.091 301C114.318 301 120.166 299.542 125.527 296.464C148.161 283.45 149.678 248.079 138.902 206.823C180.164 195.536 210.054 176.528 210.054 150.5C210 124.417 180.11 105.409 138.848 94.1231ZM114.697 23.2201C124.823 29.0522 127.26 53.6765 117.946 89.263C105.654 86.833 92.7667 84.997 79.6084 83.8089C71.9734 73.0628 63.9593 62.8027 55.6744 53.4065C77.1176 32.2922 96.124 21.6001 107.874 21.6001C110.528 21.6001 112.802 22.1401 114.697 23.2201ZM105.6 175.502C107.82 180.902 109.824 186.14 111.611 191.216C106.304 192.242 100.781 193.106 94.9868 193.916C96.8279 190.892 98.669 187.814 100.456 184.736C102.189 181.658 103.921 178.58 105.6 175.502ZM81.6661 173.936C77.0093 181.982 72.2983 189.434 67.5873 196.562C59.0858 197.102 50.2595 197.372 41 197.372C31.7946 197.372 22.9141 197.102 14.4127 196.562C9.70169 189.434 4.93655 181.982 0.279709 173.936C-4.37713 165.944 -8.43832 158.168 -12.2829 150.5C-8.49247 142.886 -4.37713 135.11 0.279709 127.064C4.93655 119.071 9.5934 111.565 14.3585 104.437C22.86 103.897 31.7404 103.627 41 103.627C50.2595 103.627 59.0858 103.897 67.5873 104.437C72.2983 111.565 77.0634 119.017 81.7203 127.064C86.3771 135.056 90.4383 142.832 94.2829 150.5C90.4383 158.114 86.323 165.89 81.6661 173.936ZM41 231.771C37.4803 227.721 33.9606 223.347 30.3867 218.757C33.9064 218.865 37.4803 218.919 41 218.919C44.5197 218.919 48.0936 218.865 51.6133 218.757C48.0394 223.347 44.5197 227.721 41 231.771ZM-18.4018 184.736C-16.6149 187.814 -14.7738 190.838 -12.9327 193.916C-18.7267 193.16 -24.2499 192.242 -29.5566 191.216C-27.7696 186.14 -25.7661 180.902 -23.546 175.502C-21.9215 178.58 -20.1887 181.658 -18.4018 184.736ZM-23.6001 125.497C-25.8203 120.097 -27.8238 114.859 -29.6107 109.783C-24.3041 108.757 -18.7808 107.893 -12.9869 107.083C-14.8279 110.107 -16.669 113.185 -18.456 116.263C-20.1887 119.341 -21.9215 122.419 -23.6001 125.497ZM41 69.1747C44.5197 73.2248 48.0394 77.5988 51.6133 82.1889C48.0936 82.0809 44.5197 82.0269 41 82.0269C37.4261 82.0269 33.9064 82.0809 30.3326 82.1889C33.9064 77.5988 37.4803 73.2788 41 69.1747ZM100.456 116.263C98.669 113.185 96.8279 110.161 94.9868 107.083C100.781 107.893 106.304 108.757 111.611 109.783C109.824 114.859 107.82 120.097 105.6 125.497C103.921 122.419 102.189 119.341 100.456 116.263ZM-32.6431 23.2201C-22.5171 17.3881 0.0631104 27.5402 26.3255 53.4065C18.0948 62.8027 10.0266 73.0088 2.44568 83.7549C-10.7126 84.9429 -23.6001 86.779 -35.892 89.209C-45.2599 53.6765 -42.8231 29.0522 -32.6431 23.2201ZM-106.34 150.5C-106.34 138.782 -86.305 124.363 -50.6206 114.589C-46.5594 126.415 -41.686 138.512 -36.1628 150.446C-41.686 162.434 -46.5594 174.476 -50.6206 186.356C-86.305 176.636 -106.34 162.164 -106.34 150.5ZM-32.6431 277.78C-42.769 271.947 -45.2057 247.323 -35.892 211.737C-23.6001 214.167 -10.7126 216.003 2.44568 217.191C10.0807 227.937 18.0948 238.197 26.3255 247.593C0.0631104 273.405 -22.5171 283.612 -32.6431 277.78ZM114.697 277.78C104.571 283.612 81.991 273.405 55.7286 247.593C63.9593 238.197 71.9734 227.991 79.6084 217.191C92.7667 216.003 105.654 214.167 117.946 211.737C127.26 247.323 124.823 271.893 114.697 277.78ZM132.675 186.356C128.614 174.53 123.74 162.434 118.217 150.446C123.74 138.458 128.614 126.415 132.675 114.589C168.305 124.309 188.394 138.782 188.394 150.5C188.34 162.164 168.305 176.636 132.675 186.356Z" fill="#202020"/>
</svg>
