<svg width="169" height="114" viewBox="0 0 169 114" fill="none" xmlns="http://www.w3.org/2000/svg">
<g clip-path="url(#clip0_1007_610)">
<path d="M10.5885 60.0754C17.4816 46.8795 33.814 41.7389 47.0195 48.6293C57.771 54.2419 61.9622 67.5579 56.3497 78.3094C54.1591 82.5059 50.1892 85.6547 45.4338 86.9553C45.3856 86.9685 45.3374 86.9817 45.2891 86.9948C38.0583 88.9102 31.3466 87.0758 27.3551 82.0715C23.698 77.4941 23.0787 71.1736 25.793 65.9733C27.2758 63.1315 29.9458 60.9913 33.1263 60.1111C33.1456 60.1058 33.1745 60.0979 33.1938 60.0927C38.1421 58.7394 42.7423 59.9798 45.5127 63.4001C48.0663 66.5583 48.5044 70.9275 46.6283 74.53C45.5668 76.562 43.6558 78.0281 41.3365 78.6831C37.914 79.5881 34.7112 78.6808 32.7729 76.2563C30.9795 74.0202 30.6835 70.9287 32.0078 68.3791C32.5175 67.3999 33.7294 67.0167 34.7085 67.5264C35.6877 68.0362 36.0709 69.248 35.5612 70.2271C34.97 71.3634 35.0999 72.7481 35.9031 73.7518C36.8336 74.9176 38.4407 75.2971 40.3172 74.8046C41.537 74.4503 42.5415 73.6883 43.0819 72.6697C44.2249 70.4806 43.9556 67.8277 42.4044 65.9089C40.6216 63.7114 37.6127 63.0207 34.1982 63.9545C32.0498 64.5524 30.3308 65.9245 29.3437 67.8118C27.3652 71.6082 27.8157 76.2124 30.4826 79.5574C33.5059 83.3336 38.5271 84.6351 44.2672 83.1067C44.3058 83.0961 44.3444 83.0856 44.383 83.075C48.0677 82.0673 51.1295 79.6541 52.8103 76.4367C57.4007 67.634 53.976 56.7416 45.1828 52.1485C33.9356 46.2776 20.0172 50.6543 14.1559 61.8989C8.98567 71.8037 10.2312 84.3184 17.2618 93.0428C24.058 101.479 34.5033 104.531 45.9142 101.411C59.399 97.7226 66.6144 90.1406 74.247 82.1127C83.0128 72.8834 92.0871 63.3416 111.07 58.1499L204.422 32.6191C205.483 32.3289 206.588 32.9596 206.878 34.0206C207.169 35.0817 206.538 36.1872 205.477 36.4774L112.087 62.0188C94.184 66.9149 85.5059 76.0478 77.1073 84.8761C69.0812 93.3226 61.4959 101.296 46.9308 105.279C34.1116 108.785 21.839 105.154 14.1149 95.5622C6.11437 85.6413 4.69217 71.3813 10.5885 60.0754Z" fill="#1F1F1F"/>
</g>
<defs>
<clipPath id="clip0_1007_610">
<rect width="204.83" height="61.83" fill="white" transform="matrix(-0.964577 0.263803 0.263803 0.964577 197.574 0)"/>
</clipPath>
</defs>
</svg>
