<svg width="169" height="114" viewBox="0 0 169 114" fill="none" xmlns="http://www.w3.org/2000/svg">
<g clip-path="url(#clip0_926_1038)">
<path d="M10.5886 60.0754C17.4817 46.8795 33.8141 41.7389 47.0196 48.6293C57.7711 54.2419 61.9624 67.5579 56.3498 78.3094C54.1593 82.5059 50.1893 85.6547 45.4339 86.9553C45.3857 86.9685 45.3375 86.9817 45.2893 86.9948C38.0584 88.9102 31.3467 87.0758 27.3552 82.0715C23.6981 77.4941 23.0788 71.1736 25.7931 65.9733C27.2759 63.1315 29.946 60.9913 33.1264 60.1111C33.1457 60.1058 33.1746 60.0979 33.1939 60.0927C38.1422 58.7394 42.7424 59.9798 45.5128 63.4001C48.0664 66.5583 48.5045 70.9275 46.6285 74.53C45.5669 76.562 43.6559 78.0281 41.3366 78.6831C37.9141 79.5881 34.7113 78.6808 32.773 76.2563C30.9796 74.0202 30.6836 70.9287 32.0079 68.3791C32.5176 67.3999 33.7295 67.0167 34.7086 67.5264C35.6878 68.0362 36.0711 69.248 35.5613 70.2271C34.9701 71.3634 35.1 72.7481 35.9032 73.7518C36.8337 74.9176 38.4408 75.2971 40.3173 74.8046C41.5371 74.4503 42.5416 73.6883 43.0821 72.6697C44.2251 70.4806 43.9557 67.8277 42.4046 65.9089C40.6217 63.7114 37.6129 63.0207 34.1983 63.9545C32.0499 64.5524 30.331 65.9245 29.3439 67.8118C27.3653 71.6082 27.8159 76.2124 30.4827 79.5574C33.506 83.3336 38.5272 84.6351 44.2674 83.1067C44.3059 83.0961 44.3445 83.0856 44.3831 83.075C48.0678 82.0673 51.1296 79.6541 52.8104 76.4367C57.4008 67.634 53.9761 56.7416 45.1829 52.1485C33.9358 46.2776 20.0173 50.6543 14.156 61.8989C8.98579 71.8037 10.2313 84.3184 17.2619 93.0428C24.0581 101.479 34.5034 104.531 45.9143 101.411C59.3991 97.7226 66.6145 90.1406 74.2471 82.1127C83.0129 72.8834 92.0872 63.3416 111.07 58.1499L204.422 32.6191C205.483 32.3289 206.588 32.9596 206.879 34.0206C207.169 35.0817 206.538 36.1872 205.477 36.4774L112.087 62.0188C94.1842 66.9149 85.506 76.0478 77.1074 84.8761C69.0813 93.3226 61.4961 101.296 46.9309 105.279C34.1117 108.785 21.8391 105.154 14.115 95.5622C6.11449 85.6413 4.6923 71.3813 10.5886 60.0754Z" fill="#F1F1F1"/>
</g>
<defs>
<clipPath id="clip0_926_1038">
<rect width="204.83" height="61.83" fill="white" transform="matrix(-0.964577 0.263803 0.263803 0.964577 197.574 0)"/>
</clipPath>
</defs>
</svg>
