<svg width="23" height="24" viewBox="0 0 23 24" fill="none" xmlns="http://www.w3.org/2000/svg">
<path d="M11.9259 23.3254C11.7168 23.1214 11.7168 22.7917 11.9259 22.5877C12.3847 22.14 13.0522 21.913 13.9084 21.913C14.7651 21.913 15.4326 22.14 15.8909 22.5877C16.1 22.7917 16.1 23.1214 15.8909 23.3254C15.7866 23.4271 15.6497 23.4783 15.5128 23.4783C15.3759 23.4783 15.239 23.4271 15.1347 23.3254C14.8833 23.0807 14.4715 22.9565 13.9084 22.9565C13.3377 22.9565 12.9366 23.077 12.6821 23.3254C12.4735 23.5294 12.135 23.5294 11.9259 23.3254ZM19.7013 20.6374C19.8404 20.4344 20.027 20.3478 20.326 20.3478C20.6249 20.3478 20.8116 20.4344 20.9506 20.6374C21.0539 20.7882 21.2234 20.8696 21.3961 20.8696C21.4977 20.8696 21.6015 20.8414 21.6924 20.7819C21.9384 20.6217 22.0047 20.2977 21.8406 20.0583C21.6058 19.7144 21.1517 19.3043 20.326 19.3043C19.5003 19.3043 19.0462 19.7144 18.8114 20.0583C18.6473 20.2977 18.7136 20.6217 18.9596 20.7819C19.2045 20.9416 19.5377 20.8769 19.7013 20.6374ZM5.41199 15.2802L5.83983 14.2727L5.43498 13.8136L3.31824 13.813C2.97276 13.8146 2.61658 13.7478 2.2834 13.6132C0.92126 13.0628 0.272012 11.5341 0.836227 10.2052L2.84868 5.46626C3.18347 4.67687 3.87336 4.13843 4.6622 3.94174C4.42261 3.55148 4.28195 3.09652 4.28195 2.6087C4.28195 1.17026 5.48151 0 6.95596 0C8.43041 0 9.62997 1.17026 9.62997 2.6087C9.62997 3.75391 8.86467 4.71809 7.81111 5.06817L11.0349 7.55948C11.2167 7.52922 11.405 7.58765 11.529 7.72852L14.271 10.836C14.4956 10.691 14.7368 10.5631 14.9951 10.4588C17.1792 9.576 19.6832 10.5877 20.588 12.7184C21.0774 13.8704 20.9988 15.1143 20.4779 16.1525L23 15.1336V16.2631L14.5432 19.6805C14.0175 19.8929 13.5223 19.9706 13.0853 20.039C12.6773 20.1026 12.3254 20.1579 11.9831 20.304C11.6253 20.4569 11.2461 20.7005 10.845 20.9588C10.4054 21.2416 9.95085 21.5343 9.4861 21.7252C9.14169 21.8671 6.64203 22.8772 3.86213 24H1.06512C1.67854 23.7522 2.30319 23.5002 2.92088 23.2508C1.79031 22.8793 0.819648 22.0623 0.327096 20.9024C-0.577788 18.7717 0.459192 16.3289 2.64332 15.4461C3.55783 15.0767 4.52636 15.0428 5.41199 15.2802ZM7.4084 18.6057L4.48678 19.7864C4.36003 19.8376 4.2135 19.8417 4.07712 19.7864C3.80384 19.6758 3.67495 19.3706 3.78833 19.1045L4.99912 16.2537C4.37126 16.1129 3.69474 16.1515 3.05405 16.4108C1.41595 17.0729 0.638351 18.9047 1.31648 20.5028C1.99514 22.1009 3.87283 22.8595 5.51093 22.1979C6.98003 21.6037 7.75335 20.0692 7.4084 18.6057ZM8.05284 17.2158C8.04802 17.2054 8.04107 17.1965 8.03626 17.1861L7.68917 16.3685L6.62171 15.1586L6.4003 15.6798C7.05169 16.0414 7.60949 16.5704 7.99829 17.2383L8.05284 17.2158ZM14.1656 12.3151C13.4292 13.1807 13.1955 14.4042 13.6677 15.5155C14.3464 17.1136 16.2241 17.8722 17.8622 17.2106C19.5003 16.5485 20.2779 14.7167 19.5997 13.1186C18.9216 11.5205 17.0434 10.7619 15.4053 11.4235C15.255 11.4845 15.1144 11.5581 14.979 11.6374L17.0402 13.9727C17.2332 14.1913 17.2076 14.5205 16.984 14.7083C16.7605 14.8962 16.4225 14.8717 16.2299 14.6536L14.1656 12.3151ZM12.9682 10.9586L10.7568 15.4143L11.0007 15.9882C11.3392 16.7854 10.9499 17.7026 10.1321 18.0329C9.71072 18.203 9.25774 18.1816 8.87055 18.0146L8.40099 18.2045C8.68604 19.2172 8.56036 20.2607 8.10525 21.1555C8.61277 20.9499 8.95879 20.8096 9.0711 20.7637C9.44493 20.6097 9.83961 20.3562 10.2573 20.0875C10.6782 19.8167 11.1135 19.537 11.5547 19.3482C12.0216 19.1483 12.4767 19.0774 12.9163 19.0085C13.3319 18.9433 13.7244 18.8817 14.1341 18.7163L15.2577 18.2624C14.1325 17.8889 13.1693 17.0703 12.6783 15.9151C12.0248 14.376 12.3885 12.6772 13.4613 11.5179L12.9682 10.9586ZM10.2086 14.1235L11.5034 11.5153L9.62194 12.7419L10.2086 14.1235ZM9.38449 10.2777L7.28433 8.652L6.42169 10.6842H7.67634C8.32666 10.6842 8.90852 11.0635 9.15827 11.6504L9.20426 11.7595L12.0419 9.90939L11.8424 9.68296C11.789 9.80139 11.7248 9.91669 11.6387 10.0226C11.0889 10.6993 10.0781 10.8136 9.38449 10.2777ZM5.35156 2.6087C5.35156 3.47165 6.0714 4.17391 6.95596 4.17391C7.84052 4.17391 8.56036 3.47165 8.56036 2.6087C8.56036 1.74574 7.84052 1.04348 6.95596 1.04348C6.0714 1.04348 5.35156 1.74574 5.35156 2.6087ZM6.96131 12.7711C7.17737 12.7711 7.3731 12.8984 7.45546 13.093L9.02457 16.7875C9.13741 17.053 9.45081 17.1798 9.72356 17.0697C9.9963 16.9597 10.1257 16.6539 10.0129 16.3878L8.17049 12.0496C8.0876 11.8539 7.89347 11.7271 7.67687 11.7271H3.31878C3.02303 11.7271 2.78397 11.4934 2.78397 11.2054C2.78397 10.9174 3.02303 10.6837 3.31878 10.6837H5.26438L6.41367 7.97687L4.98094 6.86765C4.74937 6.6887 4.71086 6.36052 4.89483 6.13461C5.07827 5.9087 5.41413 5.87113 5.64623 6.05009L10.0498 9.45965C10.2808 9.63809 10.6177 9.59948 10.8012 9.37409C10.9841 9.14817 10.9445 8.81948 10.7135 8.64157L6.30564 5.23565C6.18317 5.14174 6.06124 5.07026 5.93288 5.01861C5.11624 4.68835 4.17606 5.0687 3.837 5.86591L1.82454 10.6049C1.48601 11.4021 1.87588 12.3198 2.69306 12.6496C2.89361 12.7304 3.10111 12.7748 3.31503 12.7696L6.96131 12.7711ZM5.27027 18.3402L6.99928 17.6416C6.73723 17.2325 6.38907 16.8986 5.9869 16.6529L5.27027 18.3402Z" fill="#AB8A62"/>
</svg>
