<svg width="22" height="22" viewBox="0 0 22 22" fill="none" xmlns="http://www.w3.org/2000/svg">
<path d="M10.9957 0C4.93291 0 8.31499e-06 4.94144 0 11.0043C1.03937e-05 17.0671 4.93291 22 10.9957 22C17.0586 22 22.0001 17.0671 22.0001 11.0043C22.0001 4.94144 17.0586 0 10.9957 0ZM16.5731 6.05215C16.83 6.06986 17.0725 6.17714 17.2585 6.35525C17.3634 6.45532 17.4496 6.57516 17.5081 6.70784C17.5665 6.84053 17.5982 6.98336 17.6012 7.12831C17.6042 7.27327 17.5785 7.41746 17.5257 7.55246C17.4728 7.68746 17.3937 7.81061 17.293 7.91495L9.88519 15.6129C9.69505 15.8101 9.43817 15.9293 9.16479 15.9471C8.89142 15.965 8.62122 15.8802 8.40706 15.7094L4.81037 12.8197C4.58325 12.6372 4.43783 12.3721 4.40601 12.0825C4.3742 11.7929 4.45857 11.5025 4.64064 11.275C4.73109 11.1617 4.84306 11.0673 4.97011 10.9974C5.09716 10.9275 5.23678 10.8834 5.38095 10.8676C5.52511 10.8519 5.67097 10.8648 5.81013 10.9056C5.94929 10.9464 6.07901 11.0143 6.19182 11.1054L8.99984 13.3634L15.7094 6.38735C15.8204 6.27206 15.9551 6.18234 16.1043 6.12447C16.2534 6.06659 16.4134 6.04184 16.5731 6.05215Z" fill="#AB8A62"/>
</svg>
