<svg width="24" height="24" viewBox="0 0 24 24" fill="none" xmlns="http://www.w3.org/2000/svg">
<path d="M11.5767 11.3571L14.0047 10.0356C14.6162 9.70226 14.6146 8.82751 14.0051 8.49596L11.577 7.17346C10.994 6.85559 10.2812 7.27709 10.2812 7.94311V10.5871C10.2812 11.2495 10.9906 11.6754 11.5767 11.3571ZM10.8107 7.94311C10.8107 7.67985 11.0916 7.51146 11.3237 7.63807L13.7517 8.96057C13.9932 9.09269 13.9937 9.43863 13.7517 9.57029L11.3237 10.8918C11.092 11.0181 10.8107 10.8509 10.8107 10.5871V7.94311Z" fill="#AB8A62"/>
<path d="M18.8624 2.95849H20.3439V4.02593C20.3439 4.17207 20.4625 4.29063 20.6086 4.29063C20.7548 4.29063 20.8733 4.17207 20.8733 4.02593V2.69378C20.8733 2.54764 20.7548 2.42908 20.6086 2.42908H18.8624C18.7162 2.42908 18.5977 2.54764 18.5977 2.69378C18.5977 2.83992 18.7162 2.95849 18.8624 2.95849Z" fill="#AB8A62"/>
<path d="M12.1054 13.7542C14.5806 13.7542 16.5945 11.7403 16.5945 9.26485C16.5945 6.78978 14.5806 4.77588 12.1054 4.77588C9.62839 4.77588 7.61328 6.78978 7.61328 9.26485C7.61328 11.7403 9.62839 13.7542 12.1054 13.7542ZM12.1054 5.30529C14.2888 5.30529 16.0651 7.08138 16.0651 9.26485C16.0651 11.4483 14.2888 13.2248 12.1054 13.2248C9.92032 13.2248 8.14269 11.4483 8.14269 9.26485C8.14269 7.08137 9.92033 5.30529 12.1054 5.30529Z" fill="#AB8A62"/>
<path d="M7.12649 21.3855H6.91314C6.767 21.3855 6.64844 21.5041 6.64844 21.6502C6.64844 21.7963 6.767 21.9149 6.91314 21.9149H7.12649C7.27263 21.9149 7.3912 21.7963 7.3912 21.6502C7.3912 21.5041 7.27264 21.3855 7.12649 21.3855Z" fill="#AB8A62"/>
<path d="M10.1023 21.3855H8.1358C7.98966 21.3855 7.87109 21.5041 7.87109 21.6502C7.87109 21.7963 7.98966 21.9149 8.1358 21.9149H10.1023C10.2484 21.9149 10.367 21.7963 10.367 21.6502C10.367 21.5041 10.2484 21.3855 10.1023 21.3855Z" fill="#AB8A62"/>
<path d="M16.6459 21.3855H16.4327C16.2865 21.3855 16.168 21.5041 16.168 21.6502C16.168 21.7963 16.2865 21.9149 16.4327 21.9149H16.6459C16.792 21.9149 16.9106 21.7963 16.9106 21.6502C16.9106 21.5041 16.792 21.3855 16.6459 21.3855Z" fill="#AB8A62"/>
<path d="M17.6553 21.9149H19.622C19.7682 21.9149 19.8867 21.7963 19.8867 21.6502C19.8867 21.5041 19.7682 21.3855 19.622 21.3855H17.6553C17.5092 21.3855 17.3906 21.5041 17.3906 21.6502C17.3906 21.7963 17.5092 21.9149 17.6553 21.9149Z" fill="#AB8A62"/>
<path d="M1.28814 23.2939C30.1821 23.2905 13.7192 23.2939 22.7145 23.2939C22.8606 23.2939 22.9792 23.1754 22.9792 23.0292C22.9792 22.8831 22.8606 22.7645 22.7145 22.7645H21.8122C21.6959 20.5744 20.1581 18.7608 18.1045 18.2298C18.2802 18.1164 18.4387 17.9794 18.5772 17.8237H21.0966C21.9237 17.8237 22.5966 17.1509 22.5966 16.3237V2.20605C22.5966 1.37885 21.9237 0.706055 21.0966 0.706055H3.11782C2.29079 0.706055 1.61782 1.37885 1.61782 2.20605V16.3237C1.61782 17.1509 2.29079 17.8237 3.11782 17.8237H5.63175C5.77058 17.9797 5.92961 18.1168 6.10586 18.2304C4.05211 18.7621 2.51428 20.5752 2.39795 22.7645H1.28814C1.142 22.7645 1.02344 22.8831 1.02344 23.0292C1.02344 23.1754 1.142 23.2939 1.28814 23.2939ZM9.05705 17.8237H15.1519C15.2907 17.9797 15.4497 18.1168 15.6259 18.2304C13.9348 18.6681 12.592 19.9732 12.1051 21.6443C11.6184 19.9725 10.2754 18.667 8.58438 18.2298C8.76012 18.1164 8.9186 17.9794 9.05705 17.8237ZM21.2884 22.7645H12.4418C12.5793 20.4432 14.5114 18.5965 16.8667 18.5965C19.2202 18.5965 21.1511 20.4432 21.2884 22.7645ZM16.8653 18.067C15.8916 18.067 15.0996 17.276 15.0996 16.3034C15.0996 15.3297 15.8916 14.5376 16.8653 14.5376C17.8378 14.5376 18.629 15.3297 18.629 16.3034C18.629 17.276 17.8378 18.067 16.8653 18.067ZM3.11782 17.2943C2.58272 17.2943 2.14723 16.859 2.14723 16.3237V2.20605C2.14723 1.67078 2.58272 1.23547 3.11782 1.23547H21.0966C21.6317 1.23547 22.0672 1.67078 22.0672 2.20605V16.3237C22.0672 16.859 21.6317 17.2943 21.0966 17.2943H18.93C19.0748 16.9938 19.1584 16.6585 19.1584 16.3034C19.1584 15.0377 18.1297 14.0082 16.8653 14.0082C15.5997 14.0082 14.5701 15.0377 14.5701 16.3034C14.5701 16.6585 14.6538 16.9938 14.7987 17.2943H9.40988C9.55471 16.9938 9.63827 16.6585 9.63827 16.3034C9.63827 15.0377 8.6096 14.0082 7.34518 14.0082C6.07956 14.0082 5.05003 15.0377 5.05003 16.3034C5.05003 16.6585 5.13366 16.9938 5.27861 17.2943H3.11782ZM5.57945 16.3034C5.57945 15.3297 6.37149 14.5376 7.34519 14.5376C8.31767 14.5376 9.10886 15.3297 9.10886 16.3034C9.10886 17.276 8.31767 18.067 7.34519 18.067C6.37149 18.067 5.57945 17.276 5.57945 16.3034ZM7.34674 18.5965C9.70031 18.5965 11.631 20.4432 11.7683 22.7645H2.9217C3.05922 20.4432 4.99144 18.5965 7.34674 18.5965Z" fill="#AB8A62"/>
<path d="M17.6358 2.95849H17.8004C17.9465 2.95849 18.0651 2.83992 18.0651 2.69378C18.0651 2.54764 17.9465 2.42908 17.8004 2.42908H17.6358C17.4897 2.42908 17.3711 2.54764 17.3711 2.69378C17.3711 2.83992 17.4897 2.95849 17.6358 2.95849Z" fill="#AB8A62"/>
</svg>
