<svg width="24" height="24" viewBox="0 0 24 24" fill="none" xmlns="http://www.w3.org/2000/svg">
<g clip-path="url(#clip0_857_533)">
<path d="M21.7342 10.5H19.8394C19.7576 10.0783 19.5319 9.69806 19.2007 9.42443C18.8695 9.1508 18.4536 9.00076 18.024 9H17.994C18.016 8.77561 17.9699 8.54978 17.8616 8.35202C17.7533 8.15426 17.5878 7.99377 17.3869 7.8915L14.6947 6.50963C14.4284 6.37315 14.1191 6.347 13.8336 6.43683C13.5481 6.52665 13.3095 6.72523 13.1693 6.98963L12.6412 7.99575C12.5768 7.73178 12.4194 7.49988 12.1978 7.34262C11.9762 7.18537 11.7053 7.11329 11.4349 7.13963L8.63812 7.41L8.625 7.32638C8.57689 7.03092 8.41384 6.7665 8.17144 6.59085C7.92905 6.4152 7.627 6.34259 7.33125 6.38888L4.33463 6.8505C4.18702 6.87244 4.04526 6.92353 3.9176 7.00079C3.78993 7.07804 3.67891 7.17993 3.591 7.3005C3.50372 7.41919 3.4409 7.55403 3.40621 7.69721C3.37151 7.84039 3.36561 7.98903 3.38888 8.1345L3.525 9H2.976C2.4852 9.0006 2.01468 9.19586 1.66767 9.54294C1.32066 9.89002 1.1255 10.3606 1.125 10.8514V14.6486C1.12714 16.0544 1.52548 17.4311 2.27432 18.6208C3.02316 19.8105 4.09217 20.7651 5.35875 21.375H1.5C1.20163 21.375 0.915483 21.4935 0.704505 21.7045C0.493526 21.9155 0.375 22.2016 0.375 22.5C0.375 22.7984 0.493526 23.0845 0.704505 23.2955C0.915483 23.5065 1.20163 23.625 1.5 23.625H19.5C19.7984 23.625 20.0845 23.5065 20.2955 23.2955C20.5065 23.0845 20.625 22.7984 20.625 22.5C20.625 22.2016 20.5065 21.9155 20.2955 21.7045C20.0845 21.4935 19.7984 21.375 19.5 21.375H15.6412C17.2827 20.5823 18.5802 19.22 19.2919 17.5418C20.5039 17.3286 21.6023 16.6957 22.3945 15.754C23.1868 14.8122 23.6224 13.6218 23.625 12.3911C23.6244 11.8898 23.425 11.4092 23.0706 11.0547C22.7161 10.7002 22.2356 10.5007 21.7342 10.5ZM19.875 12.75H21.3517C21.2933 13.2117 21.1278 13.6533 20.8686 14.0397C20.6094 14.4262 20.2635 14.7468 19.8585 14.976C19.863 14.8669 19.875 14.7593 19.875 14.6486V12.75ZM13.8334 7.338C13.8813 7.24831 13.9627 7.18113 14.0598 7.15102C14.157 7.12091 14.2621 7.13029 14.3524 7.17713L17.0445 8.55863C17.0889 8.58121 17.1283 8.61241 17.1605 8.65039C17.1927 8.68838 17.217 8.7324 17.232 8.77988C17.2527 8.85217 17.2503 8.92911 17.2253 9H12.9619L13.8334 7.338ZM11.5084 7.88588C11.6085 7.87606 11.7085 7.90592 11.7868 7.96903C11.8651 8.03214 11.9155 8.12347 11.9272 8.22338L12.003 9H8.8875L8.754 8.15213L11.5084 7.88588ZM4.13063 8.019C4.12301 7.97091 4.12503 7.92177 4.13655 7.87446C4.14807 7.82715 4.16888 7.78259 4.19775 7.74338C4.22761 7.70261 4.26526 7.66817 4.30851 7.64204C4.35177 7.6159 4.39977 7.5986 4.44975 7.59113L7.44675 7.12988C7.54624 7.1145 7.64779 7.13865 7.72971 7.19716C7.81163 7.25567 7.86741 7.34391 7.88513 7.443L8.12925 9H4.284L4.13063 8.019ZM2.976 9.75H18.024C18.316 9.7503 18.5959 9.86645 18.8023 10.0729C19.0088 10.2794 19.1248 10.5594 19.125 10.8514V13.0365L18.987 13.3125C18.8501 13.5864 18.6421 13.8184 18.3848 13.9844C18.1276 14.1503 17.8304 14.2441 17.5244 14.2559C17.2185 14.2676 16.915 14.197 16.6457 14.0513C16.3765 13.9056 16.1513 13.6902 15.9938 13.4276L15 11.775C14.9194 11.6406 14.8099 11.5258 14.6795 11.4388C14.5492 11.3518 14.4011 11.2949 14.246 11.2721C14.091 11.2493 13.9328 11.2613 13.7829 11.307C13.633 11.3528 13.4951 11.4313 13.3793 11.5369L12.8865 11.9869C12.3331 12.4762 11.6205 12.7473 10.8818 12.7498C10.1431 12.7522 9.42874 12.4857 8.87213 12L8.77163 11.9123C8.65024 11.8063 8.50764 11.7275 8.35336 11.681C8.19908 11.6345 8.03666 11.6215 7.87695 11.6428C7.71724 11.6641 7.5639 11.7192 7.42719 11.8045C7.29047 11.8898 7.17351 12.0032 7.08413 12.1373L5.80538 14.0558C5.69432 14.2224 5.54574 14.3606 5.37158 14.4594C5.19742 14.5581 5.00253 14.6147 4.80255 14.6245C4.60257 14.6343 4.40307 14.5971 4.22008 14.5158C4.03709 14.4346 3.8757 14.3116 3.74887 14.1566L1.875 11.8661V10.8514C1.8752 10.5594 1.99125 10.2794 2.19767 10.0729C2.4041 9.86645 2.68402 9.7503 2.976 9.75ZM19.5 22.125C19.5995 22.125 19.6948 22.1645 19.7652 22.2348C19.8355 22.3052 19.875 22.4005 19.875 22.5C19.875 22.5995 19.8355 22.6948 19.7652 22.7652C19.6948 22.8355 19.5995 22.875 19.5 22.875H1.5C1.40054 22.875 1.30516 22.8355 1.23483 22.7652C1.16451 22.6948 1.125 22.5995 1.125 22.5C1.125 22.4005 1.16451 22.3052 1.23483 22.2348C1.30516 22.1645 1.40054 22.125 1.5 22.125H19.5ZM12.399 21.375H8.601C6.8177 21.373 5.10801 20.6637 3.84706 19.4027C2.58611 18.1417 1.87689 16.4319 1.875 14.6486V13.05L3.16762 14.6299C3.35663 14.8634 3.5956 15.0515 3.86694 15.1805C4.13828 15.3095 4.43508 15.3759 4.7355 15.375C4.76963 15.375 4.80375 15.375 4.83825 15.3724C5.15556 15.3585 5.46508 15.2697 5.74149 15.1133C6.01791 14.9569 6.25337 14.7373 6.42863 14.4724L7.70737 12.5539C7.73767 12.5086 7.77728 12.4703 7.82356 12.4415C7.86984 12.4127 7.92173 12.3942 7.97576 12.3871C8.02979 12.38 8.08471 12.3845 8.13685 12.4003C8.189 12.4162 8.23716 12.4429 8.27813 12.4789L8.37825 12.5666C9.07358 13.1726 9.96583 13.5045 10.8881 13.5003C11.8104 13.4961 12.6996 13.156 13.3894 12.5438L13.8851 12.0938C13.9189 12.0629 13.9592 12.04 14.0029 12.0266C14.0467 12.0133 14.0928 12.0098 14.1381 12.0165C14.1834 12.0232 14.2266 12.0398 14.2646 12.0652C14.3026 12.0907 14.3345 12.1242 14.358 12.1635L15.351 13.818C15.5391 14.1309 15.7946 14.398 16.0989 14.5997C16.4032 14.8015 16.7487 14.9329 17.1101 14.9844C17.4716 15.0359 17.84 15.0062 18.1885 14.8975C18.537 14.7887 18.857 14.6037 19.125 14.3558V14.6486C19.1231 16.4319 18.4139 18.1417 17.1529 19.4027C15.892 20.6637 14.1823 21.373 12.399 21.375ZM19.5791 16.7111C19.659 16.4298 19.7222 16.1441 19.7685 15.8554C20.4646 15.5778 21.0613 15.0977 21.4814 14.4772C21.9015 13.8567 22.1257 13.1244 22.125 12.375C22.125 12.2755 22.0855 12.1802 22.0152 12.1098C21.9448 12.0395 21.8495 12 21.75 12H19.875V11.25H21.7342C22.0367 11.2504 22.3267 11.3708 22.5406 11.5847C22.7544 11.7986 22.8747 12.0886 22.875 12.3911C22.8728 13.3723 22.5494 14.3258 21.9542 15.1059C21.3591 15.886 20.5249 16.4498 19.5791 16.7111Z" fill="#AB8A62"/>
<path d="M9.36603 3.16574C9.6084 2.9226 9.74449 2.59329 9.74449 2.24999C9.74449 1.90668 9.6084 1.57738 9.36603 1.33424L8.51628 0.484863L7.98603 1.01511L8.8354 1.86449C8.93753 1.96679 8.9949 2.10543 8.9949 2.24999C8.9949 2.39454 8.93753 2.53319 8.8354 2.63549L8.26128 3.20924C8.01891 3.45238 7.88281 3.78168 7.88281 4.12499C7.88281 4.46829 8.01891 4.7976 8.26128 5.04074L9.11065 5.89011L9.6409 5.35986L8.79153 4.51049C8.6894 4.40819 8.63203 4.26954 8.63203 4.12499C8.63203 3.98043 8.6894 3.84179 8.79153 3.73949L9.36603 3.16574Z" fill="#AB8A62"/>
<path d="M11.2408 3.16574C11.4832 2.9226 11.6193 2.59329 11.6193 2.24999C11.6193 1.90668 11.4832 1.57738 11.2408 1.33424L10.3911 0.484863L9.86081 1.01511L10.7102 1.86449C10.8123 1.96679 10.8697 2.10543 10.8697 2.24999C10.8697 2.39454 10.8123 2.53319 10.7102 2.63549L10.1364 3.20924C9.89397 3.45233 9.75781 3.78165 9.75781 4.12499C9.75781 4.46832 9.89397 4.79765 10.1364 5.04074L10.9858 5.89011L11.5161 5.35986L10.6671 4.51049C10.565 4.40814 10.5077 4.26951 10.5077 4.12499C10.5077 3.98046 10.565 3.84184 10.6671 3.73949L11.2408 3.16574Z" fill="#AB8A62"/>
<path d="M13.1158 3.16574C13.3582 2.9226 13.4943 2.59329 13.4943 2.24999C13.4943 1.90668 13.3582 1.57738 13.1158 1.33424L12.2661 0.484863L11.7358 1.01511L12.5852 1.86449C12.6873 1.96679 12.7447 2.10543 12.7447 2.24999C12.7447 2.39454 12.6873 2.53319 12.5852 2.63549L12.0114 3.20924C11.769 3.45233 11.6328 3.78165 11.6328 4.12499C11.6328 4.46832 11.769 4.79765 12.0114 5.04074L12.8608 5.89011L13.3911 5.35986L12.5421 4.51049C12.44 4.40814 12.3827 4.26951 12.3827 4.12499C12.3827 3.98046 12.44 3.84184 12.5421 3.73949L13.1158 3.16574Z" fill="#AB8A62"/>
</g>
<defs>
<clipPath id="clip0_857_533">
<rect width="24" height="24" fill="white"/>
</clipPath>
</defs>
</svg>
