<svg width="20" height="17" viewBox="0 0 20 17" fill="none" xmlns="http://www.w3.org/2000/svg">
<path d="M15.3965 0.701172H4.60146C3.57933 0.702317 2.59941 1.0825 1.87666 1.75832C1.1539 2.43414 0.747318 3.35043 0.746094 4.30619L0.746094 12.9582C0.747318 13.914 1.1539 14.8303 1.87666 15.5061C2.59941 16.1819 3.57933 16.5621 4.60146 16.5632H15.3965C16.4186 16.5621 17.3985 16.1819 18.1213 15.5061C18.844 14.8303 19.2506 13.914 19.2518 12.9582V4.30619C19.2506 3.35043 18.844 2.43414 18.1213 1.75832C17.3985 1.0825 16.4186 0.702317 15.3965 0.701172ZM4.60146 2.14318H15.3965C15.8582 2.14403 16.3091 2.27405 16.6911 2.51652C17.0731 2.75898 17.3688 3.1028 17.5401 3.50371L11.6352 9.02587C11.2006 9.43058 10.6123 9.65781 9.99897 9.65781C9.38564 9.65781 8.79731 9.43058 8.36275 9.02587L2.45788 3.50371C2.62917 3.1028 2.92485 2.75898 3.30686 2.51652C3.68888 2.27405 4.13975 2.14403 4.60146 2.14318ZM15.3965 15.1212H4.60146C3.98795 15.1212 3.39958 14.8933 2.96577 14.4877C2.53195 14.0821 2.28824 13.5319 2.28824 12.9582V5.38769L7.27245 10.0454C7.9962 10.7204 8.97672 11.0995 9.99897 11.0995C11.0212 11.0995 12.0017 10.7204 12.7255 10.0454L17.7097 5.38769V12.9582C17.7097 13.5319 17.466 14.0821 17.0322 14.4877C16.5984 14.8933 16.01 15.1212 15.3965 15.1212Z" fill="white"/>
</svg>
