<svg width="14" height="14" viewBox="0 0 14 14" fill="none" xmlns="http://www.w3.org/2000/svg">
<path d="M12.9792 1.02532L12.3258 0.453589C11.7308 -0.141473 10.7217 -0.170643 10.08 0.482759L8.98917 1.91207C8.37667 2.52464 8.37667 3.52224 8.98917 4.12897L9.85834 5.02156C8.91334 7.23846 7.16917 8.98864 5.02251 9.86374L4.13001 8.99448C3.83251 8.69695 3.44167 8.5336 3.02167 8.5336C2.60168 8.5336 2.21084 8.69695 1.94251 8.97114L0.460843 10.1146C-0.151656 10.7272 -0.151656 11.7248 0.449177 12.3198L1.04418 13.0024C1.68584 13.6441 2.54918 14 3.48834 14C8.00917 14 14 8.00271 14 3.48724C14 2.55381 13.6442 1.68455 12.9908 1.03115L12.9792 1.02532ZM3.47667 13.4108C2.69501 13.4108 1.97751 13.1191 1.45834 12.5999L0.863343 11.9114C0.478343 11.5264 0.478344 10.9022 0.834177 10.5405L2.31584 9.39702C2.50251 9.21033 2.74751 9.10532 3.01584 9.10532C3.28417 9.10532 3.52917 9.21033 3.71584 9.39702L4.74834 10.4063C4.83001 10.488 4.94667 10.5113 5.05751 10.4705C7.49 9.54287 9.4675 7.56516 10.4767 5.05657C10.5175 4.95156 10.4942 4.82905 10.4125 4.74154L9.40334 3.70893C9.01834 3.32389 9.01834 2.69966 9.42667 2.28545L10.5175 0.856131C10.9025 0.471091 11.5267 0.471091 11.9292 0.867799L12.5825 1.43953C13.1133 1.97041 13.405 2.68799 13.405 3.46974C13.405 7.64684 7.65334 13.3991 3.47667 13.3991V13.4108Z" fill="#65676B"/>
</svg>
