<svg width="16" height="18" viewBox="0 0 16 18" fill="none" xmlns="http://www.w3.org/2000/svg">
<path fill-rule="evenodd" clip-rule="evenodd" d="M15.4716 15.9257V6.90945L8.00002 0.624511L0.52846 6.90945V15.9257C0.52846 16.3941 0.897472 16.7752 1.35122 16.7752H1.51156V13.4286C1.51156 12.7349 2.01911 12.1614 2.67088 12.0821V9.50397C2.67088 8.71835 3.28993 8.07951 4.05092 8.07951H11.9496C12.7106 8.07951 13.3294 8.71835 13.3294 9.50397V12.0821C13.9814 12.1614 14.4885 12.7348 14.4885 13.4286V16.7752H14.6489C15.1026 16.7752 15.4716 16.3941 15.4716 15.9257ZM13.8558 17.4544H2.14401C2.08677 17.4544 2.03979 17.4061 2.03979 17.3468V15.8504H13.9603V17.3468C13.9603 17.4061 13.9135 17.4544 13.8558 17.4544ZM2.82526 12.6181H13.175C13.6081 12.6181 13.9603 12.9817 13.9603 13.4286V15.305H2.03975V13.4286C2.03975 12.9818 2.39223 12.6181 2.82526 12.6181ZM7.0912 12.0726H4.46397V10.8729C4.46397 10.5771 4.69719 10.3363 4.98402 10.3363H6.57138C6.85821 10.3363 7.0912 10.5771 7.0912 10.8729V12.0726ZM11.5361 12.0726H8.90884V10.8729C8.90884 10.5771 9.1423 10.3363 9.42913 10.3363H11.0163C11.3029 10.3363 11.5361 10.5771 11.5361 10.8729L11.5361 12.0726ZM12.801 12.0726H12.0645V10.8729C12.0645 10.2763 11.5942 9.79097 11.0162 9.79097H9.42913C8.85071 9.79097 8.38042 10.2763 8.38042 10.8729V12.0726H7.61966V10.8729C7.61966 10.2763 7.14937 9.79097 6.57142 9.79097H4.98406C4.40587 9.79097 3.93582 10.2763 3.93582 10.8729V12.0726H3.19915V9.50405C3.19915 9.01922 3.58133 8.62511 4.05096 8.62511H11.9496C12.4193 8.62511 12.801 9.01922 12.801 9.50405L12.801 12.0726ZM15.9028 6.56856L8.16694 0.0613536C8.06973 -0.0204512 7.93031 -0.0204512 7.83356 0.0613536L0.0974426 6.56856C0.0361343 6.62037 0 6.69818 0 6.78003V15.9257C0 16.6948 0.606344 17.3206 1.35118 17.3206H1.51152V17.3468C1.51152 17.707 1.79537 18 2.14397 18H13.8558C14.2046 18 14.4885 17.707 14.4885 17.3468V17.3206H14.6488C15.3939 17.3206 16 16.6948 16 15.9257V6.78003C16 6.69818 15.9644 6.62037 15.9028 6.56856Z" fill="#000834"/>
</svg>
