<svg width="24" height="24" viewBox="0 0 24 24" fill="none" xmlns="http://www.w3.org/2000/svg">
<path d="M15.863 4.9686C18.7833 6.24843 20.9655 1.70105 18.2074 0.214062C17.7047 -0.0117213 17.1402 -0.0605682 16.6062 0.0754823C16.0721 0.211533 15.5998 0.52446 15.2663 0.963265C15.1951 1.05317 15.1619 1.16744 15.174 1.28152C15.1861 1.39561 15.2424 1.50041 15.3309 1.5734C15.4194 1.64639 15.533 1.68175 15.6473 1.67187C15.7616 1.66199 15.8675 1.60768 15.9422 1.52059C17.2782 -0.0436507 19.2689 1.44367 18.3909 3.26045C17.6947 4.74774 15.6082 4.63692 15.4802 2.9601C15.4712 2.8443 15.4166 2.73681 15.3284 2.66127C15.2401 2.58574 15.1255 2.54834 15.0097 2.55731C14.8939 2.56627 14.7864 2.62087 14.7108 2.70909C14.6353 2.79731 14.5978 2.91193 14.6068 3.02774C14.629 3.43263 14.7567 3.82468 14.977 4.16509C15.1974 4.50551 15.5028 4.78248 15.863 4.9686Z" fill="#AB8A62"/>
<path d="M11.2781 17.1518L12.503 14.7542L13.8672 16.7331C13.9796 16.8728 13.9474 17.4539 13.9746 17.6224C13.9831 17.737 14.0363 17.8437 14.1228 17.9194C14.2093 17.9951 14.322 18.0338 14.4368 18.0271C14.5515 18.0204 14.659 17.9689 14.7361 17.8836C14.8132 17.7984 14.8537 17.6863 14.8488 17.5714L14.8095 16.8944C14.798 16.6586 14.7215 16.4306 14.5883 16.2356L11.4483 11.6815C11.3675 11.5645 11.3212 11.427 11.3148 11.285C11.3084 11.1429 11.3421 11.0019 11.412 10.878L12.989 8.07544C13.0475 7.971 13.0817 7.85472 13.0891 7.73525C13.0964 7.61577 13.0767 7.49618 13.0314 7.38537C12.9862 7.27455 12.9165 7.17537 12.8277 7.09519C12.7388 7.01501 12.633 6.95591 12.5181 6.92227C12.1628 6.84042 11.6408 6.57822 11.3033 6.83975L8.57007 8.5374C8.4735 8.59372 8.35917 8.61135 8.25012 8.58674C8.14107 8.56213 8.0454 8.49711 7.98238 8.40477C7.91936 8.31243 7.89368 8.19964 7.91051 8.08912C7.92733 7.9786 7.98541 7.87857 8.07306 7.80917L10.3486 6.06742C10.6489 5.83993 10.9933 5.67747 11.3598 5.59038C11.7263 5.5033 12.1069 5.49351 12.4775 5.56162L14.3001 5.90764C15.0833 6.05731 15.7959 6.45979 16.3284 7.05334L17.9692 8.88214C18.1531 9.09005 18.3857 9.24915 18.6461 9.34522C18.9065 9.44128 19.1867 9.47132 19.4616 9.43264L21.0814 9.20551C21.161 9.19473 21.2417 9.21371 21.3081 9.25882C21.3744 9.30392 21.4218 9.37197 21.4411 9.44989C21.4603 9.5278 21.4501 9.61008 21.4124 9.68092C21.3746 9.75176 21.3121 9.80615 21.2367 9.83366L18.657 10.6669C18.5267 10.7099 18.3875 10.7188 18.2528 10.6927C18.118 10.6665 17.9923 10.6063 17.8875 10.5176L16.5581 9.4243C16.4629 9.34603 16.351 9.29082 16.231 9.26297C16.111 9.23512 15.9862 9.23539 15.8663 9.26376C15.7464 9.29213 15.6347 9.34783 15.5399 9.42651C15.4451 9.50519 15.3698 9.60472 15.3198 9.71733L14.2723 12.1199C14.2097 12.2663 14.1859 12.4262 14.203 12.5844C14.2202 12.7426 14.2778 12.8938 14.3702 13.0233L16.4494 15.9565C16.5046 16.0372 16.5297 16.1347 16.5204 16.232L16.2399 19.4621C16.1657 19.9375 16.5771 20.404 16.8195 20.7682H14.8642L14.9742 19.9741C14.9807 19.7569 14.974 19.5395 14.9541 19.3231C14.9458 19.2082 14.8926 19.1012 14.806 19.0253C14.7194 18.9494 14.6064 18.9106 14.4914 18.9174C14.3764 18.9242 14.2687 18.976 14.1917 19.0616C14.1147 19.1473 14.0745 19.2598 14.0798 19.3748L14.1054 19.7957C14.1054 19.8239 14.1063 19.8522 14.105 19.8669L13.9656 20.8691C13.952 20.9652 13.9592 21.0631 13.9866 21.1561C14.014 21.2492 14.061 21.3354 14.1245 21.4088C14.1879 21.4822 14.2663 21.5412 14.3545 21.5818C14.4426 21.6224 14.5384 21.6436 14.6354 21.6442H17.1933C17.3159 21.643 17.4359 21.6088 17.5407 21.5452C17.6455 21.4816 17.7313 21.3909 17.7889 21.2827C17.8466 21.1745 17.874 21.0528 17.8683 20.9303C17.8626 20.8079 17.824 20.6892 17.7566 20.5868L17.1548 19.7059C17.1219 19.6555 17.1071 19.5955 17.1129 19.5356L17.393 16.3079C17.4202 16.0045 17.3395 15.7013 17.165 15.4516L15.0828 12.5141C15.0782 12.5074 15.0752 12.4998 15.0741 12.4917C15.073 12.4837 15.0738 12.4756 15.0764 12.4679L16.0803 10.1654L17.3276 11.1913C17.5456 11.3749 17.807 11.4996 18.0869 11.5537C18.3667 11.6078 18.6557 11.5894 18.9265 11.5003L20.6106 10.9552L18.2241 21.1078C18.1996 21.2201 18.2202 21.3376 18.2815 21.4349C18.3428 21.5322 18.4399 21.6015 18.5519 21.6278C18.6638 21.6541 18.7816 21.6354 18.8799 21.5756C18.9781 21.5159 19.0489 21.4199 19.077 21.3084L21.5868 10.6314C21.8573 10.521 22.078 10.3155 22.2075 10.0536C22.337 9.79178 22.3663 9.4916 22.2899 9.20964C22.2134 8.92768 22.0366 8.68338 21.7926 8.52274C21.5486 8.3621 21.2543 8.29621 20.9651 8.33746L19.3409 8.56501C19.2086 8.5835 19.0737 8.56888 18.9483 8.52245C18.823 8.47602 18.7111 8.39923 18.6228 8.29896L16.9807 6.46888C16.3197 5.7322 15.4352 5.23273 14.463 5.04708L12.6391 4.70078C12.1482 4.61015 11.6438 4.62289 11.1581 4.73819C10.6724 4.85349 10.216 5.06881 9.81821 5.3704L7.55474 7.10282L0.701377 1.77036C0.609535 1.70127 0.494222 1.67105 0.3803 1.6862C0.266378 1.70135 0.162972 1.76066 0.0923798 1.85135C0.0217873 1.94204 -0.0103378 2.05684 0.00293083 2.171C0.0161995 2.28515 0.073799 2.38952 0.163311 2.4616L7.06956 7.83524C7.0123 8.04899 7.01082 8.27385 7.06527 8.48834C7.11971 8.70282 7.22826 8.89976 7.38054 9.06031C7.59054 9.2796 7.869 9.42077 8.17 9.46054C8.471 9.50031 8.77657 9.43632 9.03632 9.2791L11.7289 7.60664L12.1751 7.73518L10.6485 10.4492C10.4978 10.7156 10.4253 11.019 10.4391 11.3247C10.453 11.6304 10.5527 11.926 10.7267 12.1777L11.9379 13.9345L10.4979 16.7532C10.4415 16.8642 10.3545 16.9567 10.2472 17.0198C10.1398 17.0829 10.0166 17.1139 9.89222 17.1091L6.75392 16.9964C6.19362 16.9549 5.92901 17.5744 5.65978 17.9511L4.75681 16.1296L8.50723 15.6282C8.73061 15.5987 8.94467 15.52 9.13401 15.3978C9.32335 15.2756 9.48325 15.113 9.60224 14.9216L10.4312 13.5935C10.4907 13.495 10.509 13.377 10.4822 13.2651C10.4554 13.1531 10.3856 13.0562 10.288 12.9953C10.1903 12.9344 10.0726 12.9144 9.9603 12.9396C9.848 12.9647 9.75011 13.0331 9.68778 13.1298L8.85879 14.458C8.80795 14.5397 8.73961 14.6092 8.6587 14.6614C8.57779 14.7137 8.48631 14.7473 8.39084 14.7599L4.52536 15.2766C4.40109 15.2946 4.28279 15.3416 4.18008 15.4138C4.07737 15.486 3.99313 15.5814 3.93422 15.6923C3.8753 15.8032 3.84336 15.9264 3.84098 16.052C3.83861 16.1775 3.86588 16.3018 3.92056 16.4149L4.93813 18.468C5.00066 18.5913 5.0942 18.6963 5.20956 18.7726C5.32492 18.8488 5.45813 18.8938 5.59611 18.903C5.73408 18.9122 5.87209 18.8853 5.99655 18.8251C6.12102 18.7648 6.22768 18.6732 6.30605 18.5593L6.76843 17.8734L9.86055 17.9847C10.1516 17.9949 10.4394 17.922 10.6905 17.7745C10.9416 17.627 11.1454 17.411 11.2781 17.1518Z" fill="#AB8A62"/>
<path d="M7.03315 21.5761H6.44629C6.23796 21.5756 6.03403 21.5162 5.85804 21.4047C5.68206 21.2932 5.54122 21.1342 5.45179 20.9461L1.62439 12.8537C1.57361 12.7504 1.48425 12.6713 1.37562 12.6334C1.26699 12.5955 1.14781 12.6018 1.0438 12.651C0.939789 12.7002 0.859303 12.7883 0.819719 12.8963C0.780134 13.0044 0.784628 13.1236 0.83223 13.2284L4.65963 21.3206C4.82044 21.6584 5.07352 21.944 5.38965 22.1442C5.70578 22.3444 6.07209 22.4512 6.44629 22.4521H7.03315C7.14824 22.4505 7.25807 22.4036 7.33888 22.3217C7.4197 22.2397 7.465 22.1292 7.465 22.0141C7.465 21.899 7.4197 21.7885 7.33888 21.7066C7.25807 21.6246 7.14824 21.5778 7.03315 21.5761Z" fill="#AB8A62"/>
<path d="M23.8133 21.0995C23.7667 21.0658 23.7139 21.0416 23.6579 21.0284C23.602 21.0151 23.5439 21.013 23.4872 21.0222C23.4304 21.0314 23.376 21.0517 23.3271 21.082C23.2781 21.1122 23.2357 21.1518 23.2021 21.1985L22.8552 21.6789C22.7531 21.8201 22.619 21.9351 22.4639 22.0145C22.3088 22.0939 22.1371 22.1354 21.9629 22.1357H11.4316C11.3165 22.1374 11.2068 22.1843 11.126 22.2663C11.0453 22.3482 11 22.4587 11 22.5737C11 22.6888 11.0453 22.7992 11.126 22.8811C11.2068 22.9631 11.3165 23.01 11.4316 23.0117H21.9629C22.2759 23.0113 22.5843 22.9368 22.8629 22.7941C23.1415 22.6515 23.3824 22.4448 23.5656 22.1911L23.9121 21.7109C23.9458 21.6643 23.97 21.6115 23.9832 21.5555C23.9965 21.4996 23.9986 21.4415 23.9894 21.3847C23.9802 21.328 23.96 21.2735 23.9298 21.2246C23.8995 21.1756 23.86 21.1331 23.8133 21.0995Z" fill="#AB8A62"/>
</svg>
