<svg width="26" height="26" viewBox="0 0 26 26" fill="none" xmlns="http://www.w3.org/2000/svg">
<path d="M10.7468 21.6551H11.5128L11.5123 21.6546C14.6075 21.7703 18.1203 20.3564 20.9074 17.5693C25.4548 13.0218 26.3482 6.54231 22.9029 3.09697C19.4575 -0.348423 12.978 0.544985 8.43052 5.09246C5.64342 7.87957 4.22943 11.3923 4.34513 14.4875V16.2546C4.34513 17.0505 4.02899 17.8138 3.46621 18.3766L1.69486 20.1479C0.769258 21.0735 0.767502 22.6498 1.69486 23.5772L2.42315 24.3054C3.34387 25.2261 4.93059 25.2272 5.85239 24.3054L6.95312 23.2047" stroke="#AB8A62" stroke-miterlimit="10" stroke-linecap="round" stroke-linejoin="round"/>
<path d="M7.87612 18.1224C6.71456 16.9609 6.23008 15.1957 6.51188 13.152C6.82978 10.8462 8.05397 8.52732 9.95888 6.62246C11.8638 4.71759 14.1827 3.49336 16.4884 3.17546C18.5321 2.89365 20.2973 3.37814 21.4588 4.53969C22.6204 5.70124 23.1049 7.4665 22.8231 9.51019C22.5052 11.8159 21.281 14.1348 19.3761 16.0397C17.4712 17.9446 15.1523 19.1688 12.8466 19.4867C10.8029 19.7685 9.03767 19.2839 7.87612 18.1224Z" stroke="#AB8A62" stroke-miterlimit="10" stroke-linecap="round" stroke-linejoin="round"/>
<path d="M12.3269 9.84891L14.4861 6.93261C14.7165 6.62144 15.0006 6.35388 15.325 6.14257L15.4894 6.03544C16.7778 5.19614 18.478 5.3736 19.5653 6.4609C20.6508 7.5464 20.8297 9.24302 19.9945 10.5311L19.9848 10.5461C19.709 10.9714 19.3376 11.3265 18.9001 11.5828L17.0703 12.6553C16.2985 13.1076 15.5876 13.6567 14.9551 14.2893C14.4776 14.7668 14.0472 15.2893 13.67 15.8496C12.8188 17.1139 11.0254 17.2873 9.94771 16.2096L9.63922 15.9011C8.6228 14.8847 8.70997 13.2119 9.82644 12.3066L10.4891 11.7693C11.1801 11.2091 11.7975 10.5638 12.3269 9.84891Z" stroke="#AB8A62" stroke-miterlimit="10" stroke-linecap="round" stroke-linejoin="round"/>
<path d="M9.87045 16.1306L7.87891 18.1222" stroke="#AB8A62" stroke-miterlimit="10" stroke-linecap="round" stroke-linejoin="round"/>
<path d="M21.4607 4.53931L19.5664 6.46094" stroke="#AB8A62" stroke-miterlimit="10" stroke-linecap="round" stroke-linejoin="round"/>
<path d="M15.4697 18.739L13.1445 16.4138" stroke="#AB8A62" stroke-miterlimit="10" stroke-linecap="round" stroke-linejoin="round"/>
<path d="M9.43726 12.7061L7.26172 10.5305" stroke="#AB8A62" stroke-miterlimit="10" stroke-linecap="round" stroke-linejoin="round"/>
<path d="M19.6189 15.7908L16.707 12.8789" stroke="#AB8A62" stroke-miterlimit="10" stroke-linecap="round" stroke-linejoin="round"/>
<path d="M12.9041 9.07381L10.2109 6.38062" stroke="#AB8A62" stroke-miterlimit="10" stroke-linecap="round" stroke-linejoin="round"/>
<path d="M22.3545 11.4275L20.4336 9.50659" stroke="#AB8A62" stroke-miterlimit="10" stroke-linecap="round" stroke-linejoin="round"/>
<path d="M16.5225 5.59427L14.5742 3.646" stroke="#AB8A62" stroke-miterlimit="10" stroke-linecap="round" stroke-linejoin="round"/>
<circle cx="8.61671" cy="21.8757" r="0.487799" fill="#AB8A62"/>
</svg>
