<svg width="24" height="26" viewBox="0 0 24 26" fill="none" xmlns="http://www.w3.org/2000/svg">
<path d="M19.1296 25.5951L19.0086 23.6795C18.962 22.9433 18.6976 22.2473 18.2441 21.6667C18.1145 21.5009 17.8752 21.4714 17.7094 21.6011C17.5437 21.7305 17.5143 21.9699 17.6438 22.1356C18.0024 22.5947 18.2115 23.1453 18.2484 23.7275L18.3437 25.2382H4.83718L4.93249 23.7277C4.98145 22.9556 5.32874 22.2499 5.91034 21.7404C6.25519 21.4385 6.67271 21.2209 7.11791 21.1111L9.1748 20.6027C9.44831 20.535 9.63935 20.2913 9.63935 20.01V18.5424C10.299 18.807 10.9752 18.9502 11.5905 18.9502C12.1975 18.9502 12.8655 18.8103 13.5182 18.5516V20.0039C13.5182 20.2856 13.7091 20.5295 13.9825 20.5972L16.0635 21.1112C16.2402 21.1546 16.4144 21.2157 16.5812 21.2927C16.6329 21.3166 16.6872 21.3279 16.7407 21.3279C16.8846 21.3279 17.0224 21.2459 17.0867 21.1066C17.1749 20.9157 17.0916 20.6894 16.9006 20.6012C16.6897 20.5038 16.4692 20.4265 16.2457 20.3716L14.28 19.886V18.1908C15.4074 17.5651 16.339 16.6224 16.9185 15.5146C17.016 15.3282 16.9439 15.0981 16.7575 15.0006C16.5711 14.9029 16.341 14.9751 16.2435 15.1615C15.7014 16.1979 14.8073 17.0722 13.7261 17.6233C13.0113 17.9878 12.2529 18.1885 11.5905 18.1885C10.92 18.1885 10.1539 17.9838 9.43277 17.6117C8.38597 17.0733 7.51213 16.2262 6.97222 15.2266C6.87228 15.0416 6.64128 14.9726 6.45613 15.0726C6.27104 15.1726 6.20207 15.4036 6.30206 15.5887C6.87823 16.6554 7.78761 17.5675 8.87773 18.1778V19.8916L6.93546 20.3715C6.37275 20.5103 5.84473 20.7854 5.40862 21.1674C4.67331 21.8115 4.2343 22.7036 4.1724 23.6796L4.05154 25.5951C4.04489 25.7001 4.08201 25.8032 4.15397 25.8798C4.22593 25.9565 4.32642 26 4.43164 26H18.7495C18.8547 26 18.9552 25.9565 19.0272 25.8798C19.0992 25.8031 19.1362 25.7001 19.1296 25.5951Z" fill="#AB8A62"/>
<path d="M22.8021 5.96598C22.5918 5.96598 22.4213 6.13645 22.4213 6.34684V14.1583C22.4213 16.8299 19.5947 18.1852 17.9098 18.7554C17.014 19.0586 16.5566 18.8976 16.4677 18.7153C16.4148 18.6069 16.4828 18.4622 16.6331 18.3633C17.2819 17.9367 19.9029 15.9414 19.9029 14.6856C19.9029 14.1184 19.8489 13.5741 19.8035 13.2174C19.7777 13.014 19.6554 12.833 19.4763 12.7331C19.297 12.6329 19.0785 12.6241 18.8916 12.709L16.8579 13.6332C16.7119 13.6995 16.5424 13.6633 16.4363 13.543C16.3701 13.4678 16.3384 13.3714 16.3472 13.2717C16.356 13.1719 16.404 13.0826 16.4824 13.0201C16.8452 12.7311 17.1493 12.5025 17.4044 12.3209C17.4074 12.3187 17.4105 12.3167 17.4134 12.3145C18.0176 11.8851 18.3422 11.7235 18.5007 11.663C18.5083 11.6604 18.5157 11.6578 18.523 11.6547C18.596 11.6286 18.6272 11.6267 18.6315 11.6265H19.8786C20.089 11.6265 20.2595 11.456 20.2595 11.2456V6.56342C20.2595 6.35303 20.089 6.18256 19.8786 6.18256C19.6683 6.18256 19.4978 6.35303 19.4978 6.56342V10.8647H18.8908C18.9952 10.418 19.087 9.84525 19.0606 9.27325C19.0233 8.46344 18.7507 7.84884 18.2687 7.48007C18.2276 6.13472 17.8757 5.04262 17.2213 4.2315C16.7548 3.65325 16.1486 3.2308 15.4178 2.97233C15.1815 1.75104 14.2111 0.664729 12.9333 0.221003C11.8324 -0.161278 9.56575 -0.376793 6.75471 2.47599C6.60708 2.6258 6.60886 2.8669 6.75867 3.01452C6.90847 3.1622 7.14963 3.16042 7.29725 3.01056C9.81432 0.45617 11.7522 0.617299 12.6833 0.940572C12.9487 1.03274 13.1877 1.15477 13.4009 1.29731C13.1567 1.28954 12.9087 1.31051 12.6649 1.3617C11.8842 1.52593 11.1295 1.95944 10.3575 2.68714C10.2044 2.83141 10.1973 3.07247 10.3415 3.22557C10.4165 3.30504 10.5175 3.34516 10.6187 3.34516C10.7124 3.34516 10.8063 3.31078 10.8799 3.24147C11.547 2.61269 12.1822 2.24164 12.8216 2.10712C13.3711 1.99174 13.9416 2.0771 14.3677 2.33446C14.5545 2.66256 14.6647 3.00051 14.6981 3.30388C14.7105 3.41407 14.7137 3.52208 14.7075 3.62532C14.6993 3.76654 14.6739 3.9098 14.6314 4.05488C14.4979 4.5113 14.1953 4.98646 13.7268 5.47706C13.3488 5.87289 12.9059 6.23481 12.4643 6.55468C12.4642 6.55478 12.4641 6.55488 12.4639 6.55499C11.5626 7.20854 10.4068 7.86768 9.02843 8.51417C7.70005 9.13782 6.54457 10.2858 5.96704 11.5238C5.43546 11.1633 5.103 11.0001 4.8883 10.9261C4.68532 9.04296 4.80369 6.42753 6.35226 4.15781C6.47079 3.98409 6.42605 3.74714 6.25233 3.62857C6.07855 3.51 5.84161 3.55479 5.72309 3.72856C4.08438 6.1303 3.92086 8.86228 4.11617 10.8647H3.68514V6.56337C3.68514 6.35298 3.51461 6.18251 3.30428 6.18251C3.09394 6.18251 2.92342 6.35298 2.92342 6.56337V11.2456C2.92342 11.456 3.09394 11.6264 3.30428 11.6264H4.55111C4.56502 11.6268 4.85092 11.6453 5.90884 12.4147C5.91286 12.4177 5.91692 12.4207 5.92103 12.4236C6.14518 12.5869 6.40294 12.7829 6.70062 13.0201C6.77898 13.0825 6.82702 13.1718 6.8358 13.2716C6.84459 13.3713 6.81295 13.4677 6.74668 13.5429C6.64065 13.6632 6.47114 13.6994 6.32515 13.6331L4.29146 12.7089C4.10449 12.624 3.88593 12.6329 3.70662 12.733C3.52756 12.8329 3.40523 13.0139 3.37944 13.2173C3.33409 13.574 3.28006 14.1183 3.28006 14.6855C3.28006 15.9413 5.90102 17.9366 6.54985 18.3632C6.70017 18.462 6.76816 18.6068 6.71525 18.7152C6.62633 18.8974 6.16889 19.0584 5.27312 18.7553C3.58825 18.1851 0.761717 16.8298 0.761717 14.1582V6.34694C0.761717 6.13655 0.591194 5.96608 0.380859 5.96608C0.170523 5.96608 0 6.13655 0 6.34694V14.1584C0 15.5282 0.602315 16.7331 1.79034 17.7396C2.83237 18.6225 4.12668 19.1717 5.02896 19.477C5.46278 19.6238 5.83481 19.6858 6.14853 19.6858C6.82433 19.6858 7.22981 19.3979 7.39983 19.0495C7.6222 18.5938 7.44081 18.0375 6.96839 17.7269C6.50969 17.4253 5.75838 16.8358 5.11387 16.1991C4.32346 15.418 4.04182 14.9052 4.04182 14.6857C4.04182 14.2332 4.07915 13.7936 4.11662 13.4664L6.01005 14.3267C6.46317 14.5326 6.98896 14.4202 7.31817 14.0467C7.52374 13.8135 7.6219 13.5145 7.59468 13.2049C7.56741 12.8953 7.41852 12.6182 7.17538 12.4244C6.96662 12.2581 6.77563 12.1105 6.59891 11.9778C7.07488 10.8599 8.14911 9.76877 9.35216 9.20399C10.6922 8.57552 11.8328 7.93202 12.7465 7.28938C15.3275 8.24138 16.254 10.1865 16.7396 11.862C16.5216 12.0225 16.2793 12.208 16.0076 12.4244C15.7645 12.6182 15.6155 12.8953 15.5883 13.205C15.561 13.5146 15.6592 13.8135 15.8648 14.0467C16.1939 14.4202 16.7196 14.5326 17.1729 14.3268L19.0662 13.4664C19.1037 13.7936 19.141 14.2334 19.141 14.6858C19.141 14.9052 18.8594 15.4181 18.069 16.1991C17.4245 16.8359 16.6732 17.4254 16.2145 17.7269C15.7421 18.0376 15.5607 18.5938 15.783 19.0496C15.9531 19.398 16.3584 19.6859 17.0343 19.6859C17.3481 19.6859 17.7202 19.6239 18.1539 19.4771C19.0562 19.1718 20.3505 18.6225 21.3926 17.7397C22.5806 16.7333 23.1829 15.5283 23.1829 14.1585V6.34699C23.183 6.1365 23.0124 5.96598 22.8021 5.96598ZM13.4565 6.75359C14.3743 6.00482 15.3225 4.98321 15.4563 3.80727C16.8239 4.42736 17.3236 5.71141 17.4644 6.91878L17.3167 6.81478C17.1447 6.69367 16.9071 6.7349 16.786 6.90685C16.6649 7.07884 16.7061 7.3164 16.878 7.43756L17.6723 7.99712C17.6767 8.00017 17.6813 8.0022 17.6857 8.00504C17.6909 8.00839 17.6957 8.01225 17.7011 8.01535C18.481 8.46563 18.3915 9.87841 18.0633 11.0217C17.8939 11.1014 17.6766 11.2223 17.3971 11.4037C16.8963 9.80209 15.9125 7.833 13.4565 6.75359Z" fill="#AB8A62"/>
</svg>
