<svg width="25" height="21" viewBox="0 0 25 21" fill="none" xmlns="http://www.w3.org/2000/svg">
<path d="M18.9758 9.67402C19.7662 9.67402 20.4814 9.37289 21.046 8.80827C22.1753 7.67904 22.1753 5.79698 21.046 4.66775C20.4814 4.10313 19.7662 3.802 18.9758 3.802C18.1853 3.802 17.4701 4.10313 16.9055 4.66775C15.7763 5.79698 15.7763 7.67904 16.9055 8.80827C17.4325 9.37289 18.1853 9.67402 18.9758 9.67402ZM17.4325 5.23236C17.8465 4.81831 18.3735 4.59247 18.9758 4.59247C19.5404 4.59247 20.105 4.81831 20.5191 5.23236C21.3848 6.09811 21.3848 7.45319 20.5191 8.31894C20.105 8.73299 19.5404 8.95884 18.9758 8.95884C18.4112 8.95884 17.8465 8.73299 17.4325 8.31894C16.5667 7.45319 16.5667 6.06047 17.4325 5.23236Z" fill="#AB8A62"/>
<path d="M1.36079 12.4592C2.22653 12.4592 2.64058 12.7227 3.09228 13.0238C3.58161 13.325 4.14623 13.7014 5.23782 13.7014C6.32941 13.7014 6.89403 13.325 7.38337 13.0238C7.8727 12.7227 8.24911 12.4592 9.11486 12.4592C9.9806 12.4592 10.3947 12.7227 10.8463 13.0238C11.3357 13.325 11.9003 13.7014 12.9919 13.7014C14.0835 13.7014 14.6481 13.325 15.1374 13.0238C15.6268 12.7227 16.0032 12.4592 16.8689 12.4592C17.7347 12.4592 18.1487 12.7227 18.6004 13.0238C19.0898 13.325 19.6544 13.7014 20.746 13.7014C21.8376 13.7014 22.4022 13.325 22.8915 13.0238C23.3808 12.7227 23.7573 12.4592 24.623 12.4592C24.8488 12.4592 24.9994 12.3086 24.9994 12.0828C24.9994 11.857 24.8488 11.7064 24.623 11.7064C23.5314 11.7064 22.9668 12.0828 22.4775 12.3839C21.9881 12.6851 21.6117 12.9485 20.746 12.9485C19.8802 12.9485 19.4662 12.6851 19.0145 12.3839C18.751 12.2334 18.4875 12.0452 18.1111 11.9322C18.1111 11.8946 18.0734 11.857 18.0358 11.8193L11.6745 5.42032L14.1964 2.89837C14.8739 2.22083 14.8739 1.16687 14.1964 0.489335C13.8953 0.150564 13.4436 0 12.9919 0C12.5402 0 12.1261 0.188206 11.7874 0.489335L7.94798 4.44165C7.42101 4.96863 7.42101 5.79673 7.94798 6.32371L10.3194 8.6951L6.21649 12.7227L6.17885 12.7603C5.91536 12.8356 5.65187 12.9109 5.23782 12.9109C4.37208 12.9109 3.95802 12.6474 3.50633 12.3463C3.017 12.0452 2.45238 11.6687 1.36079 11.6687C1.13494 11.6687 0.984375 11.8193 0.984375 12.0452C0.984375 12.271 1.13494 12.4592 1.36079 12.4592ZM11.1098 8.39397L8.47496 5.75909C8.36203 5.64617 8.32439 5.4956 8.32439 5.34504C8.32439 5.19448 8.39968 5.04391 8.47496 4.93099L12.3896 1.01631C12.5778 0.828105 12.8037 0.752822 13.0672 0.752822C13.3307 0.752822 13.5565 0.865746 13.7447 1.01631C14.1211 1.39272 14.1211 1.99498 13.7447 2.33375L10.9593 5.11919C10.8087 5.26976 10.8087 5.4956 10.9593 5.64617L16.9819 11.6687C16.9819 11.6687 16.9819 11.6687 16.9442 11.6687C15.8526 11.6687 15.288 12.0452 14.7987 12.3463C14.3093 12.6474 13.9329 12.9109 13.0672 12.9109C12.2014 12.9109 11.7874 12.6474 11.3357 12.3463C10.8463 12.0452 10.2817 11.6687 9.19014 11.6687C8.81373 11.6687 8.5126 11.7064 8.24911 11.7817L11.1098 8.92095C11.1851 8.84566 11.2228 8.77038 11.2228 8.65746C11.1851 8.54454 11.1475 8.46925 11.1098 8.39397Z" fill="#AB8A62"/>
<path d="M1.36079 15.6214C2.22653 15.6214 2.64058 15.8848 3.09228 16.186C3.58161 16.4871 4.14623 16.8635 5.23782 16.8635C6.32941 16.8635 6.89403 16.4871 7.38337 16.186C7.8727 15.8848 8.24911 15.6214 9.11486 15.6214C9.9806 15.6214 10.3947 15.8848 10.8463 16.186C11.3357 16.4871 11.9003 16.8635 12.9919 16.8635C14.0835 16.8635 14.6481 16.4871 15.1374 16.186C15.6268 15.8848 16.0032 15.6214 16.8689 15.6214C17.7347 15.6214 18.1487 15.8848 18.6004 16.186C19.0898 16.4871 19.6544 16.8635 20.746 16.8635C21.8376 16.8635 22.4022 16.4871 22.8915 16.186C23.3808 15.8848 23.7573 15.6214 24.623 15.6214C24.8488 15.6214 24.9994 15.4708 24.9994 15.2449C24.9994 15.0191 24.8488 14.8685 24.623 14.8685C23.5314 14.8685 22.9668 15.2449 22.4775 15.5461C21.9881 15.8472 21.6117 16.1107 20.746 16.1107C19.8802 16.1107 19.4662 15.8472 19.0145 15.5461C18.5251 15.2449 17.9605 14.8685 16.8689 14.8685C15.7773 14.8685 15.2127 15.2449 14.7234 15.5461C14.2341 15.8472 13.8576 16.1107 12.9919 16.1107C12.1261 16.1107 11.7121 15.8472 11.2604 15.5461C10.7711 15.2449 10.2065 14.8685 9.11486 14.8685C8.02326 14.8685 7.45865 15.2449 6.96931 15.5461C6.47998 15.8472 6.10357 16.1107 5.23782 16.1107C4.37208 16.1107 3.95802 15.8472 3.50633 15.5461C3.017 15.2449 2.45238 14.8685 1.36079 14.8685C1.13494 14.8685 0.984375 15.0191 0.984375 15.2449C0.984375 15.4708 1.13494 15.6214 1.36079 15.6214Z" fill="#AB8A62"/>
<path d="M1.36079 18.783C2.22653 18.783 2.64058 19.0465 3.09228 19.3476C3.58161 19.6487 4.14623 20.0251 5.23782 20.0251C6.32941 20.0251 6.89403 19.6487 7.38337 19.3476C7.8727 19.0465 8.24911 18.783 9.11486 18.783C9.9806 18.783 10.3947 19.0465 10.8463 19.3476C11.3357 19.6487 11.9003 20.0251 12.9919 20.0251C14.0835 20.0251 14.6481 19.6487 15.1374 19.3476C15.6268 19.0465 16.0032 18.783 16.8689 18.783C17.7347 18.783 18.1487 19.0465 18.6004 19.3476C19.0898 19.6487 19.6544 20.0251 20.746 20.0251C21.8376 20.0251 22.4022 19.6487 22.8915 19.3476C23.3808 19.0465 23.7573 18.783 24.623 18.783C24.8488 18.783 24.9994 18.6324 24.9994 18.4066C24.9994 18.1807 24.8488 18.0302 24.623 18.0302C23.5314 18.0302 22.9668 18.4066 22.4775 18.7077C21.9881 19.0088 21.6117 19.2723 20.746 19.2723C19.8802 19.2723 19.4662 19.0088 19.0145 18.7077C18.5251 18.4066 17.9605 18.0302 16.8689 18.0302C15.7773 18.0302 15.2127 18.4066 14.7234 18.7077C14.2341 19.0088 13.8576 19.2723 12.9919 19.2723C12.1261 19.2723 11.7121 19.0088 11.2604 18.7077C10.7711 18.4066 10.2065 18.0302 9.11486 18.0302C8.02326 18.0302 7.45865 18.4066 6.96931 18.7077C6.47998 19.0088 6.10357 19.2723 5.23782 19.2723C4.37208 19.2723 3.95802 19.0088 3.50633 18.7077C3.017 18.4066 2.45238 18.0302 1.36079 18.0302C1.13494 18.0302 0.984375 18.1807 0.984375 18.4066C0.984375 18.6324 1.13494 18.783 1.36079 18.783Z" fill="#AB8A62"/>
</svg>
