<svg width="25" height="25" viewBox="0 0 25 25" fill="none" xmlns="http://www.w3.org/2000/svg">
<g clip-path="url(#clip0_865_709)">
<path d="M2.66736 16.534C3.14874 17.0122 3.68161 17.4356 4.25625 17.7964L1.85603 20.1984C1.62144 20.4328 1.48965 20.7507 1.48965 21.0824C1.48965 21.414 1.62144 21.7321 1.85603 21.9665L3.03526 23.1456C3.26965 23.3802 3.58759 23.512 3.91925 23.512C4.25091 23.512 4.56904 23.3802 4.80343 23.1456L8.75307 19.1959H8.79179C8.88658 19.1948 8.9806 19.1772 9.06929 19.1442C9.10038 19.142 9.13089 19.1359 9.16065 19.1263C10.9725 18.3796 12.434 18.2097 13.7603 18.5938C14.1795 18.7157 14.5807 18.8927 14.9534 19.12C14.971 19.3107 15.0541 19.4895 15.189 19.6254L20.1973 24.6334C20.6853 25.1213 21.4765 25.1213 21.9647 24.6334L23.143 23.4551C23.3774 23.2207 23.509 22.9028 23.509 22.5713C23.509 22.2397 23.3774 21.9217 23.143 21.6873L21.3742 19.9216L18.719 17.2664C18.9382 17.1953 19.1586 17.1155 19.3795 17.0248C21.605 16.0916 23.3747 14.3215 24.3077 12.096C24.7509 11.0378 24.9855 9.9042 24.9991 8.75701C25.0157 7.61974 24.8089 6.4901 24.3907 5.43236C23.5151 3.23068 21.7713 1.48691 19.5698 0.610931C18.5115 0.194206 17.3821 -0.0123451 16.2446 0.00272184C15.0978 0.0160723 13.9641 0.250468 12.9062 0.693132C12.215 0.982647 11.5624 1.35684 10.9633 1.80713C10.2434 1.61031 9.50146 1.50484 8.75517 1.49302C7.61771 1.477 6.48788 1.68316 5.42957 2.10046C3.22617 2.97377 1.48164 4.71868 0.608713 6.92227C0.191225 7.98039 -0.0153259 9.10984 0.00088539 10.2473C0.0148081 11.3939 0.249013 12.527 0.690723 13.5851C1.14941 14.6884 1.82113 15.6905 2.66736 16.534ZM5.09619 21.6728L4.21182 20.7883C4.04608 20.6492 3.80157 20.6601 3.649 20.8132C3.49623 20.9664 3.48612 21.2109 3.62554 21.3761L4.5101 22.2606L4.21506 22.5553C4.04989 22.7121 3.79089 22.7121 3.62554 22.5553L2.44517 21.3761C2.36697 21.2981 2.32311 21.192 2.32311 21.0814C2.32311 20.9708 2.36697 20.8647 2.44517 20.7865L3.91715 19.3146L4.80172 20.1991C4.96516 20.357 5.22512 20.3548 5.3857 20.194C5.54648 20.0334 5.54877 19.7734 5.39085 19.61L4.50629 18.7254L5.00846 18.2234C5.20833 18.3247 5.40878 18.4254 5.61667 18.5122C6.27999 18.7855 6.97384 18.9785 7.68313 19.0867L5.09619 21.6728ZM10.5283 17.8056L16.3138 12.0201C16.0049 13.1526 16.0009 14.3467 16.3026 15.4811C16.4338 15.9348 16.6203 16.3708 16.858 16.7789L15.2876 18.3493C14.8798 18.1113 14.4442 17.9244 13.9907 17.793C12.8557 17.4913 11.661 17.4955 10.5283 17.8056ZM22.5538 22.8673L21.3742 24.0456C21.2115 24.2081 20.9478 24.2081 20.7851 24.0456L20.4918 23.7509L21.3742 22.8669C21.4826 22.7622 21.526 22.6074 21.4879 22.4617C21.4498 22.3159 21.3361 22.2023 21.1904 22.1641C21.0447 22.126 20.8898 22.1695 20.7851 22.2778L19.9015 23.1618L18.1337 21.394L19.0173 20.5104C19.1752 20.3469 19.1729 20.087 19.0123 19.9264C18.8516 19.7656 18.5918 19.7633 18.4282 19.9212L17.5446 20.8049L15.7768 19.0371L17.5446 17.2693L18.1337 17.859L17.2495 18.7426C17.1442 18.8479 17.103 19.0012 17.1416 19.145C17.1801 19.2888 17.2924 19.4013 17.4362 19.4399C17.5798 19.4784 17.7334 19.4374 17.8386 19.3321L18.7224 18.4479L20.4902 20.2157L19.6064 21.0995C19.4981 21.204 19.4548 21.3591 19.4928 21.5046C19.5309 21.6503 19.6448 21.7642 19.7905 21.8021C19.936 21.8403 20.0911 21.797 20.1956 21.6887L21.0826 20.8049L22.5554 22.2778C22.6334 22.3562 22.677 22.4622 22.6769 22.5728C22.6765 22.6835 22.6322 22.7893 22.5538 22.8673ZM13.2264 1.46098C14.1863 1.06008 15.2145 0.847807 16.2547 0.835982C17.2836 0.819771 18.3059 1.00668 19.2628 1.38583C21.2505 2.17694 22.8249 3.75153 23.6158 5.73942C23.9942 6.69627 24.1809 7.71815 24.1658 8.74709C24.1538 9.78728 23.9417 10.8153 23.5408 11.7752C22.6923 13.7972 21.0838 15.4055 19.0615 16.2537C18.7257 16.3908 18.3809 16.5047 18.0296 16.5943C17.9117 16.5102 17.7738 16.4585 17.6296 16.4448C17.4023 16.0719 17.2255 15.6708 17.1034 15.2516C16.7201 13.9254 16.8896 12.4642 17.6363 10.6532C17.6449 10.6253 17.6504 10.5967 17.6529 10.5677C17.6901 10.4682 17.708 10.3623 17.7053 10.2561C17.6689 9.1745 17.437 8.10856 17.0205 7.10975C16.089 4.88366 14.3191 3.11357 12.0934 2.18209C12.0478 2.1634 12.0012 2.15043 11.9553 2.1325C12.3588 1.87236 12.7842 1.64769 13.2264 1.46098ZM1.38399 7.22838C2.17205 5.23954 3.74741 3.66476 5.73663 2.87746C6.6622 2.51204 7.64842 2.32532 8.6436 2.32761H8.74564C9.78564 2.33982 10.8138 2.5519 11.7737 2.95241C13.7952 3.7996 15.4028 5.40757 16.2496 7.42921C16.6283 8.3359 16.8381 9.304 16.8683 10.286L10.6975 16.4599L10.6929 16.4627L10.69 16.4669L8.79427 18.3627L8.79217 18.3655C7.81091 18.3327 6.84377 18.1222 5.93746 17.7444C3.91467 16.8972 2.30594 15.2884 1.45895 13.2655C1.05901 12.3054 0.846733 11.2774 0.834146 10.2374C0.819079 9.20806 1.00599 8.1858 1.38399 7.22838Z" fill="#AB8A62"/>
<path d="M14.7118 8.06858C14.9481 8.63692 15.1024 9.23598 15.1701 9.84762C15.1934 10.0587 15.3715 10.2188 15.584 10.219C15.5994 10.219 15.6149 10.218 15.6301 10.2165C15.8582 10.1911 16.0228 9.98628 15.9984 9.75817C15.9219 9.06757 15.7474 8.39147 15.4806 7.74988C15.1049 6.84815 14.555 6.02919 13.8623 5.34012C13.6989 5.1822 13.4391 5.18449 13.2784 5.34508C13.1176 5.50586 13.1153 5.76581 13.2732 5.92926C13.8887 6.5409 14.3777 7.26793 14.7118 8.06858Z" fill="#AB8A62"/>
<path d="M2.61556 13.2021C2.75479 13.2024 2.88505 13.1332 2.96248 13.0176C3.0401 12.9021 3.05479 12.7554 3.00177 12.6266C2.81105 12.1628 2.67468 11.6784 2.59553 11.1831L2.57017 9.26653C2.63539 8.77923 2.75841 8.30167 2.93673 7.84375C2.99261 7.70509 2.96992 7.54699 2.87723 7.42969C2.78454 7.3124 2.63616 7.25385 2.48835 7.27597C2.34054 7.29829 2.216 7.39803 2.16183 7.53745C1.82349 8.39302 1.65604 9.30658 1.66863 10.2264C1.67988 11.1602 1.8706 12.0831 2.2303 12.945C2.29477 13.1008 2.44696 13.2022 2.61556 13.2021Z" fill="#AB8A62"/>
<path d="M22.2261 11.68C22.4387 11.7683 22.6825 11.6675 22.7708 11.455C23.1305 10.5933 23.3212 9.67061 23.3326 8.73684C23.3464 7.81565 23.1793 6.90077 22.8412 6.04386C22.787 5.90444 22.6625 5.8045 22.5146 5.78238C22.3668 5.76006 22.2185 5.81881 22.1258 5.9361C22.0331 6.05339 22.0104 6.21131 22.0663 6.34996C22.2446 6.80808 22.3678 7.28583 22.4328 7.77331L22.4075 9.68968C22.3283 10.1852 22.1919 10.6698 22.0012 11.1338C21.9583 11.236 21.9579 11.3512 22.0001 11.4537C22.0424 11.5563 22.1237 11.6377 22.2261 11.68Z" fill="#AB8A62"/>
<path d="M10 22.5011C10 23.8817 11.1193 25.0009 12.5 25.0009C13.8806 25.0009 14.9998 23.8817 14.9998 22.5011C14.9998 21.1204 13.8806 20.0011 12.5 20.0011C11.1199 20.0026 10.0015 21.121 10 22.5011ZM14.1665 22.5011C14.1665 23.4215 13.4204 24.1676 12.5 24.1676C11.5796 24.1676 10.8333 23.4215 10.8333 22.5011C10.8333 21.5807 11.5796 20.8344 12.5 20.8344C13.4204 20.8344 14.1665 21.5807 14.1665 22.5011Z" fill="#AB8A62"/>
<path d="M11.7873 21.7885C11.6671 21.9077 11.6311 22.0877 11.6959 22.2441C11.7607 22.4003 11.9139 22.502 12.0831 22.501C12.1111 22.5003 12.1389 22.4974 12.1664 22.4926C12.1925 22.488 12.2177 22.4797 12.2414 22.4676C12.2679 22.4585 12.2932 22.4459 12.3163 22.4301C12.3382 22.4148 12.359 22.398 12.3789 22.3801C12.5423 22.2166 12.5423 21.9519 12.3789 21.7885C12.2156 21.625 11.9507 21.625 11.7873 21.7885Z" fill="#AB8A62"/>
</g>
<defs>
<clipPath id="clip0_865_709">
<rect width="25" height="25" fill="white"/>
</clipPath>
</defs>
</svg>
