<svg width="24" height="29" viewBox="0 0 24 29" fill="none" xmlns="http://www.w3.org/2000/svg">
<path d="M23.0692 15.7565C23.0692 15.4908 22.8538 15.2753 22.5881 15.2753C21.9729 15.2792 21.3683 15.1145 20.8402 14.7991C21.6643 13.3586 21.1505 11.5001 21.126 11.4139C21.1183 11.3869 21.1082 11.3607 21.0957 11.3355C21.0678 11.2778 21.0331 11.2258 21.0033 11.1691C21.8298 9.51211 22.2643 6.06107 21.076 4.08229C20.9543 3.87972 20.7035 3.79551 20.4842 3.88357C20.4998 3.8764 20.5158 3.87027 20.5323 3.86528C19.8187 3.99119 19.1188 4.18531 18.4423 4.44501C16.0449 1.49818 13.8799 0 12.0036 0C10.1272 0 7.96221 1.49818 5.56533 4.44501C4.87998 4.18303 4.17111 3.9873 3.44843 3.86044C3.24567 3.81475 3.03651 3.90437 2.92978 4.08272C1.74336 6.06345 2.17637 9.51206 3.0005 11.17C2.97115 11.2258 2.93795 11.2787 2.91055 11.3355C2.89806 11.3607 2.88789 11.3869 2.88025 11.4139C2.85569 11.5001 2.34189 13.3586 3.16602 14.7991C2.63812 15.1143 2.03398 15.279 1.41911 15.2753C1.15338 15.2753 0.937987 15.4907 0.937987 15.7565C0.918134 16.6516 1.5075 17.4462 2.36977 17.6872C2.21617 18.1684 1.94593 18.6043 1.58316 18.9559C1.47411 19.0652 1.42419 19.2203 1.44899 19.3727C1.47378 19.5252 1.57019 19.6565 1.70826 19.7257C2.22714 19.9624 2.80231 20.048 3.36764 19.9725C3.25408 20.5381 2.98459 21.0607 2.58967 21.4813C2.47174 21.5992 2.42325 21.7698 2.46158 21.9321C2.49991 22.0944 2.61955 22.2253 2.7778 22.278C3.58469 22.5391 4.4462 22.5825 5.27528 22.4041C5.52895 22.9595 5.4416 23.6112 5.05058 24.0802C4.97387 24.1951 4.95027 24.3374 4.9857 24.4709C5.02113 24.6044 5.11223 24.7162 5.23581 24.7779C5.82413 25.0457 6.48284 25.1175 7.11504 24.9828C7.44751 26.1861 8.57233 28.8669 12.0037 28.8669C15.435 28.8669 16.5598 26.1861 16.8922 24.98C17.5244 25.1144 18.1831 25.0426 18.7715 24.775C18.895 24.7134 18.9861 24.6016 19.0216 24.468C19.057 24.3346 19.0334 24.1923 18.9567 24.0774C18.5661 23.6082 18.4785 22.9568 18.7315 22.4012C19.5607 22.5797 20.4224 22.5362 21.2295 22.2752C21.3877 22.2224 21.5074 22.0916 21.5457 21.9292C21.584 21.7669 21.5355 21.5964 21.4176 21.4784C21.0227 21.0579 20.7532 20.5353 20.6396 19.9696C21.205 20.045 21.78 19.9594 22.299 19.7228C22.4371 19.6536 22.5335 19.5223 22.5583 19.3699C22.5831 19.2174 22.5331 19.0624 22.4241 18.953C22.0616 18.6022 21.7914 18.1672 21.6375 17.6867C22.4995 17.4458 23.0887 16.6514 23.0692 15.7565ZM3.88814 14.1038C3.62426 13.3343 3.59229 12.5041 3.79624 11.7165C5.05243 9.19888 8.11567 7.6978 12.0036 7.6978C15.0076 7.6978 18.7329 8.75622 20.2109 11.7161C20.4147 12.5038 20.3828 13.3341 20.119 14.1038C18.0171 11.8586 15.079 10.5845 12.0036 10.5845C8.92807 10.5845 5.98998 11.8586 3.88814 14.1038ZM20.3749 10.1784C19.2001 8.75779 17.6082 7.74268 15.8246 7.2768C16.5647 6.48478 17.471 5.86639 18.4784 5.46591C19.0993 5.20564 19.7437 5.00573 20.4029 4.86885C21.0615 6.30933 20.8844 8.69994 20.3749 10.1784ZM12.0036 0.962249C13.5148 0.962249 15.4194 2.30265 17.5268 4.84435C16.4583 5.34946 15.5208 6.09432 14.7873 7.0209C13.8713 6.83282 12.9387 6.73726 12.0036 6.7356C11.0651 6.73351 10.1286 6.82375 9.20781 7.00504C8.47587 6.08572 7.54278 5.34656 6.48037 4.84435C8.58767 2.3026 10.4924 0.962249 12.0036 0.962249ZM3.60284 4.86885C4.26197 5.00573 4.90643 5.20569 5.52728 5.46591C6.52663 5.86354 7.4267 6.47528 8.16425 7.25804C6.38068 7.72715 4.79315 8.75266 3.63219 10.1856C3.11549 8.71633 2.92062 6.34538 3.60284 4.86885ZM21.0773 16.7909C20.8116 16.7909 20.5962 17.0062 20.5962 17.272C20.639 17.9051 20.8607 18.5132 21.2356 19.0252C20.9088 19.0619 20.5782 19.0055 20.282 18.8625C20.1329 18.788 19.9559 18.796 19.8141 18.8836C19.6723 18.9713 19.5859 19.126 19.5858 19.2927C19.61 20.0767 19.8317 20.8419 20.2305 21.5173C19.7415 21.6149 19.2348 21.5703 18.7704 21.3888C18.5851 21.2957 18.3609 21.3318 18.2142 21.4783C17.5849 22.1859 17.4424 23.2023 17.8529 24.0556C17.4814 24.1256 17.0972 24.075 16.7564 23.9113C16.6169 23.8412 16.4521 23.8431 16.3143 23.9165C16.1766 23.9898 16.0829 24.1255 16.0631 24.2803C16.0449 24.4314 15.5517 27.9045 12.0035 27.9045C8.4553 27.9045 7.96216 24.4313 7.94388 24.2846C7.9244 24.1296 7.83089 23.9937 7.69301 23.9201C7.55513 23.8466 7.39018 23.8445 7.25059 23.9147C6.90991 24.0787 6.52568 24.1293 6.15412 24.059C6.56467 23.2049 6.42143 22.1877 5.79088 21.4802C5.64417 21.3337 5.41999 21.2976 5.23472 21.3907C4.77017 21.5717 4.26359 21.6163 3.77453 21.5192C4.17434 20.8434 4.39676 20.0775 4.42113 19.2926C4.42103 19.1259 4.33469 18.9712 4.19287 18.8836C4.05105 18.796 3.87403 18.788 3.72494 18.8625C3.42915 19.0061 3.09849 19.0624 2.77186 19.0246C3.1465 18.5127 3.36807 17.9049 3.41077 17.2719C3.41077 17.0062 3.19538 16.7908 2.92964 16.7908C2.51734 16.8316 2.12916 16.5899 1.98378 16.2019C2.78331 16.1088 3.53791 15.7831 4.15406 15.2652L4.14637 15.2565C4.16874 15.2408 4.18964 15.223 4.20892 15.2036C6.1537 12.9118 8.99784 11.5774 12.0034 11.5467C15.0088 11.5775 17.8527 12.9117 19.7974 15.2031C19.8167 15.2226 19.8376 15.2403 19.86 15.2561L19.8523 15.2647C20.4668 15.7818 21.2196 16.1074 22.0173 16.201C21.8711 16.5856 21.4873 16.8263 21.0773 16.7909Z" fill="#AB8A62"/>
<path d="M12.0065 24.0557C10.9273 24.0557 10.082 24.6898 10.082 25.499C10.1736 26.5215 10.984 27.3319 12.0065 27.4234C13.029 27.3319 13.8394 26.5215 13.9309 25.499C13.9309 24.6898 13.0856 24.0557 12.0065 24.0557ZM12.0065 26.4612C11.5095 26.4612 11.0442 25.7997 11.0442 25.499C11.0442 25.3027 11.419 25.0179 12.0065 25.0179C12.5939 25.0179 12.9687 25.3027 12.9687 25.499C12.9687 25.7997 12.5035 26.4612 12.0065 26.4612Z" fill="#AB8A62"/>
<path d="M8.15433 17.3201C7.57056 17.3201 7.04427 17.6717 6.82086 18.2111C6.59744 18.7504 6.72093 19.3712 7.13375 19.784C7.54653 20.1968 8.16734 20.3203 8.70669 20.0969C9.24604 19.8735 9.5977 19.3472 9.5977 18.7634C9.59765 17.9663 8.95143 17.3201 8.15433 17.3201ZM8.15433 19.2445C7.88859 19.2445 7.6732 19.0291 7.6732 18.7634C7.6732 18.4977 7.88859 18.2823 8.15433 18.2823C8.42006 18.2823 8.63545 18.4977 8.63545 18.7634C8.63545 19.0291 8.42001 19.2445 8.15433 19.2445Z" fill="#AB8A62"/>
<path d="M15.8535 17.3201C15.0563 17.3201 14.4102 17.9663 14.4102 18.7634C14.4102 19.5605 15.0564 20.2067 15.8535 20.2067C16.6506 20.2067 17.2968 19.5605 17.2968 18.7634C17.2968 17.9663 16.6506 17.3201 15.8535 17.3201ZM15.8535 19.2445C15.5877 19.2445 15.3724 19.0291 15.3724 18.7634C15.3724 18.4977 15.5877 18.2823 15.8535 18.2823C16.1192 18.2823 16.3346 18.4977 16.3346 18.7634C16.3346 19.0291 16.1192 19.2445 15.8535 19.2445Z" fill="#AB8A62"/>
</svg>
