<svg width="188" height="295" viewBox="0 0 188 295" fill="none" xmlns="http://www.w3.org/2000/svg">
<g clip-path="url(#clip0_172_145)">
<path d="M147.5 0C66.1613 0 0 66.1613 0 147.5C0 228.839 66.1613 295 147.5 295C228.839 295 295 228.839 295 147.5C295 66.1613 228.8 0 147.5 0ZM147.5 279.313C74.8285 279.313 15.6873 220.171 15.6873 147.5C15.6873 74.8285 74.8285 15.6873 147.5 15.6873C220.171 15.6873 279.313 74.8285 279.313 147.5C279.313 220.171 220.171 279.313 147.5 279.313Z" fill="#EDEDED"/>
<path d="M147.5 66.9456C103.105 66.9456 66.9456 103.066 66.9456 147.5C66.9456 191.895 103.066 228.054 147.5 228.054C191.895 228.054 228.054 191.934 228.054 147.5C228.015 103.066 191.895 66.9456 147.5 66.9456ZM147.5 212.328C111.733 212.328 82.6329 183.228 82.6329 147.461C82.6329 111.694 111.733 82.5937 147.5 82.5937C183.267 82.5937 212.367 111.694 212.367 147.461C212.328 183.267 183.267 212.328 147.5 212.328Z" fill="#EDEDED"/>
<path d="M147.5 34.7474C85.3389 34.7474 34.7473 85.339 34.7473 147.5C34.7473 209.661 85.3389 260.253 147.5 260.253C209.661 260.253 260.253 209.661 260.253 147.5C260.253 85.2998 209.661 34.7474 147.5 34.7474ZM147.5 244.565C93.9669 244.565 50.4346 201.033 50.4346 147.5C50.4346 93.9671 93.9669 50.4348 147.5 50.4348C201.033 50.4348 244.565 93.9671 244.565 147.5C244.565 200.994 200.994 244.565 147.5 244.565Z" fill="#EDEDED"/>
<path d="M147.5 117.655C131.028 117.655 117.655 131.028 117.655 147.5C117.655 163.972 131.028 177.345 147.5 177.345C163.972 177.345 177.345 163.972 177.345 147.5C177.306 131.028 163.972 117.655 147.5 117.655Z" fill="#EDEDED"/>
</g>
<defs>
<clipPath id="clip0_172_145">
<rect width="295" height="295" fill="white"/>
</clipPath>
</defs>
</svg>
