<svg width="168" height="295" viewBox="0 0 168 295" fill="none" xmlns="http://www.w3.org/2000/svg">
<g clip-path="url(#clip0_717_1355)">
<path d="M20.5 0C-60.8387 0 -127 66.1613 -127 147.5C-127 228.839 -60.8387 295 20.5 295C101.839 295 168 228.839 168 147.5C168 66.1613 101.8 0 20.5 0ZM20.5 279.313C-52.1715 279.313 -111.313 220.171 -111.313 147.5C-111.313 74.8285 -52.1715 15.6873 20.5 15.6873C93.1715 15.6873 152.313 74.8285 152.313 147.5C152.313 220.171 93.1715 279.313 20.5 279.313Z" fill="#EDEDED"/>
<path d="M20.4997 66.9457C-23.8954 66.9457 -60.0547 103.066 -60.0547 147.5C-60.0547 191.895 -23.9346 228.054 20.4997 228.054C64.8948 228.054 101.054 191.934 101.054 147.5C101.015 103.066 64.8948 66.9457 20.4997 66.9457ZM20.4997 212.328C-15.2674 212.328 -44.3674 183.228 -44.3674 147.461C-44.3674 111.694 -15.2674 82.5938 20.4997 82.5938C56.2668 82.5938 85.3667 111.694 85.3667 147.461C85.3275 183.267 56.2668 212.328 20.4997 212.328Z" fill="#EDEDED"/>
<path d="M20.5006 34.7474C-41.6604 34.7474 -92.252 85.339 -92.252 147.5C-92.252 209.661 -41.6604 260.253 20.5006 260.253C82.6616 260.253 133.253 209.661 133.253 147.5C133.253 85.2998 82.6616 34.7474 20.5006 34.7474ZM20.5006 244.565C-33.0323 244.565 -76.5646 201.033 -76.5646 147.5C-76.5646 93.9671 -33.0323 50.4348 20.5006 50.4348C74.0336 50.4348 117.566 93.9671 117.566 147.5C117.566 200.994 73.9944 244.565 20.5006 244.565Z" fill="#EDEDED"/>
<path d="M20.4994 117.655C4.02774 117.655 -9.3457 131.028 -9.3457 147.5C-9.3457 163.972 4.02774 177.345 20.4994 177.345C36.9711 177.345 50.3445 163.972 50.3445 147.5C50.3053 131.028 36.9711 117.655 20.4994 117.655Z" fill="#EDEDED"/>
</g>
<defs>
<clipPath id="clip0_717_1355">
<rect width="295" height="295" fill="white" transform="translate(-127)"/>
</clipPath>
</defs>
</svg>
